<svg width="18" height="18" viewBox="0 0 18 18" fill="none" xmlns="http://www.w3.org/2000/svg">
<g id="add">
<mask id="mask0_115_2940" style="mask-type:alpha" maskUnits="userSpaceOnUse" x="0" y="0" width="18" height="18">
<rect id="Bounding box" x="0.25" y="0.25" width="17.5" height="17.5" fill="#D9D9D9"/>
</mask>
<g mask="url(#mask0_115_2940)">
<path id="add_2" d="M8.12488 9.87488H3.74988C3.50196 9.87488 3.29415 9.79102 3.12644 9.62332C2.95873 9.45561 2.87488 9.2478 2.87488 8.99988C2.87488 8.75196 2.95873 8.54415 3.12644 8.37644C3.29415 8.20873 3.50196 8.12488 3.74988 8.12488H8.12488V3.74988C8.12488 3.50196 8.20873 3.29415 8.37644 3.12644C8.54415 2.95873 8.75196 2.87488 8.99988 2.87488C9.2478 2.87488 9.45561 2.95873 9.62332 3.12644C9.79102 3.29415 9.87488 3.50196 9.87488 3.74988V8.12488H14.2499C14.4978 8.12488 14.7056 8.20873 14.8733 8.37644C15.041 8.54415 15.1249 8.75196 15.1249 8.99988C15.1249 9.2478 15.041 9.45561 14.8733 9.62332C14.7056 9.79102 14.4978 9.87488 14.2499 9.87488H9.87488V14.2499C9.87488 14.4978 9.79102 14.7056 9.62332 14.8733C9.45561 15.041 9.2478 15.1249 8.99988 15.1249C8.75196 15.1249 8.54415 15.041 8.37644 14.8733C8.20873 14.7056 8.12488 14.4978 8.12488 14.2499V9.87488Z" fill="white"/>
</g>
</g>
</svg>
