<svg width="24" height="24" viewBox="0 0 24 24" fill="none" xmlns="http://www.w3.org/2000/svg">
<mask id="mask0_115_3392" style="mask-type:alpha" maskUnits="userSpaceOnUse" x="0" y="0" width="24" height="24">
<rect width="24" height="24" fill="#D9D9D9"/>
</mask>
<g mask="url(#mask0_115_3392)">
<path d="M12 14.95C11.8667 14.95 11.7417 14.9292 11.625 14.8875C11.5083 14.8459 11.4 14.775 11.3 14.675L6.69999 10.075C6.51665 9.89169 6.42499 9.65836 6.42499 9.37502C6.42499 9.09169 6.51665 8.85836 6.69999 8.67502C6.88332 8.49169 7.11665 8.40002 7.39999 8.40002C7.68332 8.40002 7.91665 8.49169 8.09999 8.67502L12 12.575L15.9 8.67502C16.0833 8.49169 16.3167 8.40002 16.6 8.40002C16.8833 8.40002 17.1167 8.49169 17.3 8.67502C17.4833 8.85836 17.575 9.09169 17.575 9.37502C17.575 9.65836 17.4833 9.89169 17.3 10.075L12.7 14.675C12.6 14.775 12.4917 14.8459 12.375 14.8875C12.2583 14.9292 12.1333 14.95 12 14.95Z" fill="white"/>
</g>
</svg>
