<svg width="24" height="24" viewBox="0 0 24 24" fill="none" xmlns="http://www.w3.org/2000/svg">
<mask id="mask0_106_2309" style="mask-type:alpha" maskUnits="userSpaceOnUse" x="0" y="0" width="24" height="24">
<rect width="24" height="24" fill="#D9D9D9"/>
</mask>
<g mask="url(#mask0_106_2309)">
<path d="M11.9999 12.9813L8.32485 16.6563C8.18735 16.7938 8.01235 16.8625 7.79985 16.8625C7.58735 16.8625 7.41235 16.7938 7.27485 16.6563C7.13735 16.5188 7.0686 16.3438 7.0686 16.1313C7.0686 15.9188 7.13735 15.7438 7.27485 15.6063L10.9499 11.9313L7.27485 8.25625C7.13735 8.11875 7.0686 7.94375 7.0686 7.73125C7.0686 7.51875 7.13735 7.34375 7.27485 7.20625C7.41235 7.06875 7.58735 7 7.79985 7C8.01235 7 8.18735 7.06875 8.32485 7.20625L11.9999 10.8813L15.6749 7.20625C15.8124 7.06875 15.9874 7 16.1999 7C16.4124 7 16.5874 7.06875 16.7249 7.20625C16.8624 7.34375 16.9311 7.51875 16.9311 7.73125C16.9311 7.94375 16.8624 8.11875 16.7249 8.25625L13.0499 11.9313L16.7249 15.6063C16.8624 15.7438 16.9311 15.9188 16.9311 16.1313C16.9311 16.3438 16.8624 16.5188 16.7249 16.6563C16.5874 16.7938 16.4124 16.8625 16.1999 16.8625C15.9874 16.8625 15.8124 16.7938 15.6749 16.6563L11.9999 12.9813Z" fill="white"/>
</g>
</svg>
