<svg width="22" height="22" viewBox="0 0 22 22" fill="none" xmlns="http://www.w3.org/2000/svg">
<g id="explore">
<mask id="mask0_115_2972" style="mask-type:alpha" maskUnits="userSpaceOnUse" x="0" y="0" width="22" height="22">
<rect id="Bounding box" width="22" height="22" fill="#D9D9D9"/>
</mask>
<g mask="url(#mask0_115_2972)">
<path id="explore_2" d="M10.9999 11.9167C10.7402 11.9167 10.5225 11.8289 10.3468 11.6532C10.1711 11.4775 10.0833 11.2598 10.0833 11C10.0833 10.7403 10.1711 10.5226 10.3468 10.3469C10.5225 10.1712 10.7402 10.0834 10.9999 10.0834C11.2596 10.0834 11.4773 10.1712 11.653 10.3469C11.8287 10.5226 11.9166 10.7403 11.9166 11C11.9166 11.2598 11.8287 11.4775 11.653 11.6532C11.4773 11.8289 11.2596 11.9167 10.9999 11.9167ZM10.9999 20.1667C9.73186 20.1667 8.5402 19.9261 7.42492 19.4448C6.30964 18.9636 5.3395 18.3105 4.5145 17.4855C3.6895 16.6605 3.03638 15.6903 2.55513 14.575C2.07388 13.4598 1.83325 12.2681 1.83325 11C1.83325 9.73198 2.07388 8.54032 2.55513 7.42504C3.03638 6.30976 3.6895 5.33962 4.5145 4.51462C5.3395 3.68962 6.30964 3.0365 7.42492 2.55525C8.5402 2.074 9.73186 1.83337 10.9999 1.83337C12.268 1.83337 13.4596 2.074 14.5749 2.55525C15.6902 3.0365 16.6603 3.68962 17.4853 4.51462C18.3103 5.33962 18.9635 6.30976 19.4447 7.42504C19.926 8.54032 20.1666 9.73198 20.1666 11C20.1666 12.2681 19.926 13.4598 19.4447 14.575C18.9635 15.6903 18.3103 16.6605 17.4853 17.4855C16.6603 18.3105 15.6902 18.9636 14.5749 19.4448C13.4596 19.9261 12.268 20.1667 10.9999 20.1667ZM10.9999 18.3334C13.0471 18.3334 14.7812 17.623 16.202 16.2021C17.6228 14.7813 18.3333 13.0473 18.3333 11C18.3333 8.95282 17.6228 7.21879 16.202 5.79796C14.7812 4.37712 13.0471 3.66671 10.9999 3.66671C8.9527 3.66671 7.21867 4.37712 5.79784 5.79796C4.377 7.21879 3.66659 8.95282 3.66659 11C3.66659 13.0473 4.377 14.7813 5.79784 16.2021C7.21867 17.623 8.9527 18.3334 10.9999 18.3334ZM6.80617 15.6521L12.5353 12.9709C12.627 12.925 12.711 12.8639 12.7874 12.7875C12.8638 12.7112 12.9249 12.6271 12.9708 12.5355L15.652 6.80629C15.7284 6.65351 15.7093 6.51983 15.5947 6.40525C15.4801 6.29067 15.3464 6.27157 15.1937 6.34796L9.4645 9.02921C9.37283 9.07504 9.28881 9.13615 9.21242 9.21254C9.13603 9.28893 9.07492 9.37296 9.02908 9.46462L6.34784 15.1938C6.27145 15.3466 6.29054 15.4802 6.40513 15.5948C6.51971 15.7094 6.65339 15.7285 6.80617 15.6521Z" fill="white"/>
</g>
</g>
</svg>
