<svg width="25" height="25" viewBox="0 0 25 25" fill="none" xmlns="http://www.w3.org/2000/svg">
<mask id="mask0_298_794" style="mask-type:alpha" maskUnits="userSpaceOnUse" x="0" y="0" width="25" height="25">
<rect x="0.579346" y="0.0280762" width="24" height="24" fill="#D9D9D9"/>
</mask>
<g mask="url(#mask0_298_794)">
<path d="M5.57935 19.0281H7.00435L16.7793 9.25308L15.3543 7.82808L5.57935 17.6031V19.0281ZM4.57935 21.0281C4.29601 21.0281 4.05851 20.9322 3.86685 20.7406C3.67518 20.5489 3.57935 20.3114 3.57935 20.0281V17.6031C3.57935 17.3364 3.62935 17.0822 3.72935 16.8406C3.82935 16.5989 3.97101 16.3864 4.15435 16.2031L16.7793 3.60308C16.9793 3.41974 17.2002 3.27808 17.4418 3.17808C17.6835 3.07808 17.9377 3.02808 18.2043 3.02808C18.471 3.02808 18.7293 3.07808 18.9793 3.17808C19.2293 3.27808 19.446 3.42808 19.6293 3.62808L21.0043 5.02808C21.2043 5.21141 21.3502 5.42808 21.4418 5.67808C21.5335 5.92808 21.5793 6.17808 21.5793 6.42808C21.5793 6.69474 21.5335 6.94891 21.4418 7.19058C21.3502 7.43224 21.2043 7.65308 21.0043 7.85308L8.40435 20.4531C8.22101 20.6364 8.00851 20.7781 7.76685 20.8781C7.52518 20.9781 7.27101 21.0281 7.00435 21.0281H4.57935ZM16.0543 8.55308L15.3543 7.82808L16.7793 9.25308L16.0543 8.55308Z" fill="white"/>
</g>
</svg>
