<svg width="20" height="20" viewBox="0 0 20 20" fill="none" xmlns="http://www.w3.org/2000/svg">
<mask id="mask0_266_1138" style="mask-type:alpha" maskUnits="userSpaceOnUse" x="0" y="0" width="20" height="20">
<rect width="20" height="20" fill="#D9D9D9"/>
</mask>
<g mask="url(#mask0_266_1138)">
<path d="M9.99996 16.9375C9.80551 16.9375 9.6076 16.9028 9.40621 16.8334C9.20482 16.7639 9.02774 16.6528 8.87496 16.5L7.43746 15.1875C5.96524 13.8403 4.63538 12.5035 3.44788 11.1771C2.26038 9.85074 1.66663 8.38893 1.66663 6.79171C1.66663 5.48615 2.10413 4.39587 2.97913 3.52087C3.85413 2.64587 4.9444 2.20837 6.24996 2.20837C6.98607 2.20837 7.68051 2.36462 8.33329 2.67712C8.98607 2.98962 9.54163 3.41671 9.99996 3.95837C10.4583 3.41671 11.0138 2.98962 11.6666 2.67712C12.3194 2.36462 13.0138 2.20837 13.75 2.20837C15.0555 2.20837 16.1458 2.64587 17.0208 3.52087C17.8958 4.39587 18.3333 5.48615 18.3333 6.79171C18.3333 8.38893 17.743 9.85421 16.5625 11.1875C15.3819 12.5209 14.0416 13.8612 12.5416 15.2084L11.125 16.5C10.9722 16.6528 10.7951 16.7639 10.5937 16.8334C10.3923 16.9028 10.1944 16.9375 9.99996 16.9375Z" fill="#F20E45"/>
</g>
</svg>
