<svg width="20" height="20" viewBox="0 0 20 20" fill="none" xmlns="http://www.w3.org/2000/svg">
<mask id="mask0_26_5461" style="mask-type:alpha" maskUnits="userSpaceOnUse" x="0" y="0" width="20" height="20">
<rect width="20" height="20" fill="#D9D9D9"/>
</mask>
<g mask="url(#mask0_26_5461)">
<path d="M10.0001 16.9375C9.80564 16.9375 9.60772 16.9028 9.40633 16.8334C9.20494 16.7639 9.02786 16.6528 8.87508 16.5L7.43758 15.1875C5.96536 13.8403 4.6355 12.5035 3.448 11.1771C2.2605 9.85074 1.66675 8.38893 1.66675 6.79171C1.66675 5.48615 2.10425 4.39587 2.97925 3.52087C3.85425 2.64587 4.94453 2.20837 6.25008 2.20837C6.98619 2.20837 7.68064 2.36462 8.33341 2.67712C8.98619 2.98962 9.54175 3.41671 10.0001 3.95837C10.4584 3.41671 11.014 2.98962 11.6667 2.67712C12.3195 2.36462 13.014 2.20837 13.7501 2.20837C15.0556 2.20837 16.1459 2.64587 17.0209 3.52087C17.8959 4.39587 18.3334 5.48615 18.3334 6.79171C18.3334 8.38893 17.7431 9.85421 16.5626 11.1875C15.382 12.5209 14.0417 13.8612 12.5417 15.2084L11.1251 16.5C10.9723 16.6528 10.7952 16.7639 10.5938 16.8334C10.3924 16.9028 10.1945 16.9375 10.0001 16.9375ZM9.20841 5.62504C8.80564 5.0556 8.37508 4.62157 7.91675 4.32296C7.45841 4.02435 6.90286 3.87504 6.25008 3.87504C5.41675 3.87504 4.7223 4.15282 4.16675 4.70837C3.61119 5.26393 3.33341 5.95837 3.33341 6.79171C3.33341 7.51393 3.59036 8.28129 4.10425 9.09379C4.61814 9.90629 5.23272 10.6945 5.948 11.4584C6.66328 12.2223 7.39939 12.9375 8.15633 13.6042C8.91327 14.2709 9.52786 14.8195 10.0001 15.25C10.4723 14.8195 11.0869 14.2709 11.8438 13.6042C12.6008 12.9375 13.3369 12.2223 14.0522 11.4584C14.7674 10.6945 15.382 9.90629 15.8959 9.09379C16.4098 8.28129 16.6667 7.51393 16.6667 6.79171C16.6667 5.95837 16.389 5.26393 15.8334 4.70837C15.2779 4.15282 14.5834 3.87504 13.7501 3.87504C13.0973 3.87504 12.5417 4.02435 12.0834 4.32296C11.6251 4.62157 11.1945 5.0556 10.7917 5.62504C10.6945 5.76393 10.5765 5.8681 10.4376 5.93754C10.2987 6.00699 10.1529 6.04171 10.0001 6.04171C9.8473 6.04171 9.70147 6.00699 9.56258 5.93754C9.42369 5.8681 9.30564 5.76393 9.20841 5.62504Z" fill="white"/>
</g>
</svg>
