<svg width="20" height="20" viewBox="0 0 20 20" fill="none" xmlns="http://www.w3.org/2000/svg">
<mask id="mask0_106_2313" style="mask-type:alpha" maskUnits="userSpaceOnUse" x="0" y="0" width="20" height="20">
<rect width="20" height="20" fill="#D9D9D9"/>
</mask>
<g mask="url(#mask0_106_2313)">
<path d="M3.33323 16.6668C2.8749 16.6668 2.48254 16.5036 2.15615 16.1772C1.82976 15.8509 1.66656 15.4585 1.66656 15.0002V5.00016C1.66656 4.54183 1.82976 4.14947 2.15615 3.82308C2.48254 3.49669 2.8749 3.3335 3.33323 3.3335H16.6666C17.1249 3.3335 17.5173 3.49669 17.8436 3.82308C18.17 4.14947 18.3332 4.54183 18.3332 5.00016V15.0002C18.3332 15.4585 18.17 15.8509 17.8436 16.1772C17.5173 16.5036 17.1249 16.6668 16.6666 16.6668H3.33323ZM3.33323 9.16683H6.66656V5.00016H3.33323V9.16683ZM8.33323 9.16683H11.6666V5.00016H8.33323V9.16683ZM13.3332 9.16683H16.6666V5.00016H13.3332V9.16683ZM6.66656 15.0002V10.8335H3.33323V15.0002H6.66656ZM8.33323 15.0002H11.6666V10.8335H8.33323V15.0002ZM13.3332 15.0002H16.6666V10.8335H13.3332V15.0002Z" fill="#EEEEEE"/>
</g>
</svg>
