<svg width="20" height="20" viewBox="0 0 20 20" fill="none" xmlns="http://www.w3.org/2000/svg">
<mask id="mask0_115_3518" style="mask-type:alpha" maskUnits="userSpaceOnUse" x="0" y="0" width="20" height="20">
<rect width="20" height="20" fill="#D9D9D9"/>
</mask>
<g mask="url(#mask0_115_3518)">
<path d="M12.5833 15.7916L11.8541 17.8125C11.7985 17.9652 11.7013 18.0902 11.5624 18.1875C11.4235 18.2847 11.2708 18.3333 11.1041 18.3333C10.8263 18.3333 10.6006 18.2187 10.427 17.9895C10.2534 17.7604 10.2221 17.5069 10.3333 17.2291L13.4999 8.85412C13.5694 8.70135 13.6735 8.57635 13.8124 8.47912C13.9513 8.3819 14.1041 8.33329 14.2708 8.33329H14.8958C15.0624 8.33329 15.2152 8.3819 15.3541 8.47912C15.493 8.57635 15.5971 8.70135 15.6666 8.85412L18.8333 17.25C18.9444 17.5138 18.9166 17.7604 18.7499 17.9895C18.5833 18.2187 18.361 18.3333 18.0833 18.3333C17.9027 18.3333 17.7464 18.2812 17.6145 18.177C17.4826 18.0729 17.3819 17.9375 17.3124 17.7708L16.6249 15.7916H12.5833ZM13.0833 14.3333H16.0833L14.6249 10.2083H14.5416L13.0833 14.3333ZM7.49992 11.6666L3.91659 15.25C3.76381 15.4027 3.56936 15.4791 3.33325 15.4791C3.09714 15.4791 2.9027 15.4027 2.74992 15.25C2.59714 15.0972 2.52075 14.9027 2.52075 14.6666C2.52075 14.4305 2.59714 14.2361 2.74992 14.0833L6.37492 10.4583C5.84714 9.87496 5.38534 9.27079 4.9895 8.64579C4.59367 8.02079 4.24992 7.36107 3.95825 6.66663H5.70825C5.95825 7.16663 6.22561 7.61801 6.51033 8.02079C6.79506 8.42357 7.13881 8.84718 7.54158 9.29163C8.1527 8.62496 8.65964 7.94093 9.06242 7.23954C9.4652 6.53815 9.80547 5.79163 10.0833 4.99996H1.66659C1.43047 4.99996 1.23256 4.9201 1.07284 4.76038C0.913113 4.60065 0.833252 4.40274 0.833252 4.16663C0.833252 3.93051 0.913113 3.7326 1.07284 3.57288C1.23256 3.41315 1.43047 3.33329 1.66659 3.33329H6.66658V2.49996C6.66658 2.26385 6.74645 2.06593 6.90617 1.90621C7.06589 1.74649 7.26381 1.66663 7.49992 1.66663C7.73603 1.66663 7.93395 1.74649 8.09367 1.90621C8.25339 2.06593 8.33325 2.26385 8.33325 2.49996V3.33329H13.3333C13.5694 3.33329 13.7673 3.41315 13.927 3.57288C14.0867 3.7326 14.1666 3.93051 14.1666 4.16663C14.1666 4.40274 14.0867 4.60065 13.927 4.76038C13.7673 4.9201 13.5694 4.99996 13.3333 4.99996H11.7499C11.4583 5.98607 11.0624 6.9444 10.5624 7.87496C10.0624 8.80551 9.44436 9.68051 8.70825 10.5L10.7083 12.5416L10.0833 14.25L7.49992 11.6666Z" fill="white"/>
</g>
</svg>
