<svg width="25" height="25" viewBox="0 0 25 25" fill="none" xmlns="http://www.w3.org/2000/svg">
<mask id="mask0_303_812" style="mask-type:alpha" maskUnits="userSpaceOnUse" x="0" y="0" width="25" height="25">
<rect x="0.45752" y="0.986084" width="24" height="24" fill="#D9D9D9"/>
</mask>
<g mask="url(#mask0_303_812)">
<path d="M8.45752 13.9861H16.4575C16.7409 13.9861 16.9784 13.8903 17.17 13.6986C17.3617 13.5069 17.4575 13.2694 17.4575 12.9861C17.4575 12.7028 17.3617 12.4653 17.17 12.2736C16.9784 12.0819 16.7409 11.9861 16.4575 11.9861H8.45752C8.17419 11.9861 7.93669 12.0819 7.74502 12.2736C7.55335 12.4653 7.45752 12.7028 7.45752 12.9861C7.45752 13.2694 7.55335 13.5069 7.74502 13.6986C7.93669 13.8903 8.17419 13.9861 8.45752 13.9861ZM12.4575 22.9861C11.0742 22.9861 9.77419 22.7236 8.55752 22.1986C7.34085 21.6736 6.28252 20.9611 5.38252 20.0611C4.48252 19.1611 3.77002 18.1028 3.24502 16.8861C2.72002 15.6694 2.45752 14.3694 2.45752 12.9861C2.45752 11.6028 2.72002 10.3028 3.24502 9.08608C3.77002 7.86942 4.48252 6.81108 5.38252 5.91108C6.28252 5.01108 7.34085 4.29858 8.55752 3.77358C9.77419 3.24858 11.0742 2.98608 12.4575 2.98608C13.8409 2.98608 15.1409 3.24858 16.3575 3.77358C17.5742 4.29858 18.6325 5.01108 19.5325 5.91108C20.4325 6.81108 21.145 7.86942 21.67 9.08608C22.195 10.3028 22.4575 11.6028 22.4575 12.9861C22.4575 14.3694 22.195 15.6694 21.67 16.8861C21.145 18.1028 20.4325 19.1611 19.5325 20.0611C18.6325 20.9611 17.5742 21.6736 16.3575 22.1986C15.1409 22.7236 13.8409 22.9861 12.4575 22.9861ZM12.4575 20.9861C14.6909 20.9861 16.5825 20.2111 18.1325 18.6611C19.6825 17.1111 20.4575 15.2194 20.4575 12.9861C20.4575 10.7528 19.6825 8.86108 18.1325 7.31108C16.5825 5.76108 14.6909 4.98608 12.4575 4.98608C10.2242 4.98608 8.33252 5.76108 6.78252 7.31108C5.23252 8.86108 4.45752 10.7528 4.45752 12.9861C4.45752 15.2194 5.23252 17.1111 6.78252 18.6611C8.33252 20.2111 10.2242 20.9861 12.4575 20.9861Z" fill="white"/>
</g>
</svg>
