<svg width="16" height="16" viewBox="0 0 16 16" fill="none" xmlns="http://www.w3.org/2000/svg">
<mask id="mask0_106_2298" style="mask-type:alpha" maskUnits="userSpaceOnUse" x="0" y="0" width="16" height="16">
<rect width="16" height="16" fill="#D9D9D9"/>
</mask>
<g mask="url(#mask0_106_2298)">
<path d="M4 9.33329C3.63333 9.33329 3.31944 9.20274 3.05833 8.94163C2.79722 8.68052 2.66667 8.36663 2.66667 7.99996C2.66667 7.63329 2.79722 7.3194 3.05833 7.05829C3.31944 6.79718 3.63333 6.66663 4 6.66663C4.36667 6.66663 4.68056 6.79718 4.94167 7.05829C5.20278 7.3194 5.33333 7.63329 5.33333 7.99996C5.33333 8.36663 5.20278 8.68052 4.94167 8.94163C4.68056 9.20274 4.36667 9.33329 4 9.33329ZM8 9.33329C7.63333 9.33329 7.31944 9.20274 7.05833 8.94163C6.79722 8.68052 6.66667 8.36663 6.66667 7.99996C6.66667 7.63329 6.79722 7.3194 7.05833 7.05829C7.31944 6.79718 7.63333 6.66663 8 6.66663C8.36667 6.66663 8.68056 6.79718 8.94167 7.05829C9.20278 7.3194 9.33333 7.63329 9.33333 7.99996C9.33333 8.36663 9.20278 8.68052 8.94167 8.94163C8.68056 9.20274 8.36667 9.33329 8 9.33329ZM12 9.33329C11.6333 9.33329 11.3194 9.20274 11.0583 8.94163C10.7972 8.68052 10.6667 8.36663 10.6667 7.99996C10.6667 7.63329 10.7972 7.3194 11.0583 7.05829C11.3194 6.79718 11.6333 6.66663 12 6.66663C12.3667 6.66663 12.6806 6.79718 12.9417 7.05829C13.2028 7.3194 13.3333 7.63329 13.3333 7.99996C13.3333 8.36663 13.2028 8.68052 12.9417 8.94163C12.6806 9.20274 12.3667 9.33329 12 9.33329Z" fill="#EEEEEE"/>
</g>
</svg>
