<svg width="18" height="18" viewBox="0 0 18 18" fill="none" xmlns="http://www.w3.org/2000/svg">
<mask id="mask0_55_4171" style="mask-type:alpha" maskUnits="userSpaceOnUse" x="0" y="0" width="18" height="18">
<rect width="18" height="18" fill="#D9D9D9"/>
</mask>
<g mask="url(#mask0_55_4171)">
<path d="M7.98652 11.8125L11.6428 9.46875C11.8178 9.35625 11.9053 9.2 11.9053 9C11.9053 8.8 11.8178 8.64375 11.6428 8.53125L7.98652 6.1875C7.79902 6.0625 7.6084 6.05312 7.41465 6.15937C7.2209 6.26562 7.12402 6.43125 7.12402 6.65625V11.3437C7.12402 11.5687 7.2209 11.7344 7.41465 11.8406C7.6084 11.9469 7.79902 11.9375 7.98652 11.8125ZM8.99902 16.5C7.96152 16.5 6.98652 16.3031 6.07402 15.9094C5.16152 15.5156 4.36777 14.9812 3.69277 14.3062C3.01777 13.6312 2.4834 12.8375 2.08965 11.925C1.6959 11.0125 1.49902 10.0375 1.49902 9C1.49902 7.9625 1.6959 6.9875 2.08965 6.075C2.4834 5.1625 3.01777 4.36875 3.69277 3.69375C4.36777 3.01875 5.16152 2.48437 6.07402 2.09062C6.98652 1.69687 7.96152 1.5 8.99902 1.5C10.0365 1.5 11.0115 1.69687 11.924 2.09062C12.8365 2.48437 13.6303 3.01875 14.3053 3.69375C14.9803 4.36875 15.5146 5.1625 15.9084 6.075C16.3021 6.9875 16.499 7.9625 16.499 9C16.499 10.0375 16.3021 11.0125 15.9084 11.925C15.5146 12.8375 14.9803 13.6312 14.3053 14.3062C13.6303 14.9812 12.8365 15.5156 11.924 15.9094C11.0115 16.3031 10.0365 16.5 8.99902 16.5ZM8.99902 15C10.674 15 12.0928 14.4187 13.2553 13.2562C14.4178 12.0937 14.999 10.675 14.999 9C14.999 7.325 14.4178 5.90625 13.2553 4.74375C12.0928 3.58125 10.674 3 8.99902 3C7.32402 3 5.90527 3.58125 4.74277 4.74375C3.58027 5.90625 2.99902 7.325 2.99902 9C2.99902 10.675 3.58027 12.0937 4.74277 13.2562C5.90527 14.4187 7.32402 15 8.99902 15Z" fill="#1C1B1F"/>
</g>
</svg>
