<svg width="22" height="22" viewBox="0 0 22 22" fill="none" xmlns="http://www.w3.org/2000/svg">
<mask id="mask0_155_3618" style="mask-type:alpha" maskUnits="userSpaceOnUse" x="0" y="0" width="22" height="22">
<rect width="22" height="22" fill="#D9D9D9"/>
</mask>
<g mask="url(#mask0_155_3618)">
<path d="M10.3306 16.5846C12.0567 16.5846 13.5307 15.9783 14.7527 14.7656C15.9747 13.553 16.5857 12.0763 16.5857 10.3354C16.5857 8.60949 15.9757 7.13555 14.7556 5.91365C13.5354 4.69174 12.0624 4.08079 10.3363 4.08079C8.59544 4.08079 7.11765 4.6908 5.90297 5.91081C4.68829 7.13085 4.08095 8.6038 4.08095 10.3297C4.08095 12.0704 4.68732 13.5481 5.90005 14.7627C7.11276 15.9773 8.5896 16.5846 10.3306 16.5846ZM10.3333 18.6654C9.1773 18.6654 8.09448 18.4463 7.08488 18.0081C6.07527 17.5699 5.1945 16.9749 4.44257 16.223C3.69064 15.4711 3.09556 14.5902 2.65732 13.5804C2.21911 12.5705 2 11.4874 2 10.3311C2 9.19016 2.21911 8.11305 2.65734 7.09972C3.09557 6.0864 3.69064 5.20221 4.44257 4.44715C5.1945 3.6921 6.07544 3.09548 7.08538 2.65729C8.09533 2.2191 9.17851 2 10.3349 2C11.4759 2 12.5523 2.2194 13.564 2.65821C14.5757 3.09702 15.4599 3.69364 16.2167 4.44807C16.9736 5.20252 17.5711 6.08595 18.0093 7.09836C18.4476 8.11078 18.6667 9.18888 18.6667 10.3327C18.6667 11.3055 18.5107 12.2252 18.1986 13.0917C17.8866 13.9581 17.4556 14.7486 16.9058 15.463L19.6852 18.2421C19.8941 18.451 19.999 18.6934 20 18.9692C20.0009 19.2449 19.897 19.4873 19.688 19.6962C19.4784 19.8987 19.2337 20 18.9542 20C18.6746 20 18.4304 19.8987 18.2214 19.6962L15.4296 16.9266C14.7168 17.4765 13.9281 17.9037 13.0635 18.2084C12.199 18.513 11.2889 18.6654 10.3333 18.6654Z" fill="white"/>
</g>
</svg>
