<svg width="22" height="22" viewBox="0 0 22 22" fill="none" xmlns="http://www.w3.org/2000/svg">
<g id="shuffle">
<mask id="mask0_115_2982" style="mask-type:alpha" maskUnits="userSpaceOnUse" x="0" y="0" width="22" height="22">
<rect id="Bounding box" width="22" height="22" fill="#D9D9D9"/>
</mask>
<g mask="url(#mask0_115_2982)">
<path id="shuffle_2" d="M8.41007 9.69371L4.30799 5.59163C4.13994 5.42357 4.05591 5.20968 4.05591 4.94996C4.05591 4.69024 4.13994 4.47635 4.30799 4.30829C4.47605 4.14024 4.68994 4.05621 4.94966 4.05621C5.20938 4.05621 5.42327 4.14024 5.59132 4.30829L9.69341 8.41038L8.41007 9.69371ZM13.7497 18.3333C13.4899 18.3333 13.2722 18.2454 13.0965 18.0698C12.9208 17.8941 12.833 17.6763 12.833 17.4166C12.833 17.1569 12.9208 16.9392 13.0965 16.7635C13.2722 16.5878 13.4899 16.5 13.7497 16.5H15.2163L12.3059 13.5895L13.6122 12.2833L16.4997 15.1708V13.75C16.4997 13.4902 16.5875 13.2725 16.7632 13.0968C16.9389 12.9211 17.1566 12.8333 17.4163 12.8333C17.676 12.8333 17.8938 12.9211 18.0695 13.0968C18.2451 13.2725 18.333 13.4902 18.333 13.75V17.4166C18.333 17.6763 18.2451 17.8941 18.0695 18.0698C17.8938 18.2454 17.676 18.3333 17.4163 18.3333H13.7497ZM4.30799 17.6916C4.13994 17.5236 4.05591 17.3097 4.05591 17.05C4.05591 16.7902 4.13994 16.5763 4.30799 16.4083L15.2163 5.49996H13.7497C13.4899 5.49996 13.2722 5.41211 13.0965 5.23642C12.9208 5.06072 12.833 4.84301 12.833 4.58329C12.833 4.32357 12.9208 4.10586 13.0965 3.93017C13.2722 3.75447 13.4899 3.66663 13.7497 3.66663H17.4163C17.676 3.66663 17.8938 3.75447 18.0695 3.93017C18.2451 4.10586 18.333 4.32357 18.333 4.58329V8.24996C18.333 8.50968 18.2451 8.72739 18.0695 8.90308C17.8938 9.07878 17.676 9.16663 17.4163 9.16663C17.1566 9.16663 16.9389 9.07878 16.7632 8.90308C16.5875 8.72739 16.4997 8.50968 16.4997 8.24996V6.78329L5.59132 17.6916C5.42327 17.8597 5.20938 17.9437 4.94966 17.9437C4.68994 17.9437 4.47605 17.8597 4.30799 17.6916Z" fill="white"/>
</g>
</g>
</svg>
