<svg width="25" height="25" viewBox="0 0 25 25" fill="none" xmlns="http://www.w3.org/2000/svg">
<mask id="mask0_353_800" style="mask-type:alpha" maskUnits="userSpaceOnUse" x="0" y="0" width="25" height="25">
<rect x="0.126221" y="0.471558" width="24" height="24" fill="#D9D9D9"/>
</mask>
<g mask="url(#mask0_353_800)">
<path d="M20.2762 13.4716H9.12622C8.84289 13.4716 8.60539 13.3757 8.41372 13.1841C8.22205 12.9924 8.12622 12.7549 8.12622 12.4716C8.12622 12.1882 8.22205 11.9507 8.41372 11.7591C8.60539 11.5674 8.84289 11.4716 9.12622 11.4716H20.2762L19.4262 10.6216C19.2262 10.4216 19.1304 10.1882 19.1387 9.92156C19.1471 9.65489 19.2429 9.42156 19.4262 9.22156C19.6262 9.02156 19.8637 8.91739 20.1387 8.90906C20.4137 8.90072 20.6512 8.99656 20.8512 9.19656L23.4262 11.7716C23.6262 11.9716 23.7262 12.2049 23.7262 12.4716C23.7262 12.7382 23.6262 12.9716 23.4262 13.1716L20.8512 15.7466C20.6512 15.9466 20.4137 16.0424 20.1387 16.0341C19.8637 16.0257 19.6262 15.9216 19.4262 15.7216C19.2429 15.5216 19.1471 15.2882 19.1387 15.0216C19.1304 14.7549 19.2262 14.5216 19.4262 14.3216L20.2762 13.4716ZM15.1262 8.47156V5.47156H5.12622V19.4716H15.1262V16.4716C15.1262 16.1882 15.2221 15.9507 15.4137 15.7591C15.6054 15.5674 15.8429 15.4716 16.1262 15.4716C16.4096 15.4716 16.6471 15.5674 16.8387 15.7591C17.0304 15.9507 17.1262 16.1882 17.1262 16.4716V19.4716C17.1262 20.0216 16.9304 20.4924 16.5387 20.8841C16.1471 21.2757 15.6762 21.4716 15.1262 21.4716H5.12622C4.57622 21.4716 4.10539 21.2757 3.71372 20.8841C3.32205 20.4924 3.12622 20.0216 3.12622 19.4716V5.47156C3.12622 4.92156 3.32205 4.45072 3.71372 4.05906C4.10539 3.66739 4.57622 3.47156 5.12622 3.47156H15.1262C15.6762 3.47156 16.1471 3.66739 16.5387 4.05906C16.9304 4.45072 17.1262 4.92156 17.1262 5.47156V8.47156C17.1262 8.75489 17.0304 8.99239 16.8387 9.18406C16.6471 9.37572 16.4096 9.47156 16.1262 9.47156C15.8429 9.47156 15.6054 9.37572 15.4137 9.18406C15.2221 8.99239 15.1262 8.75489 15.1262 8.47156Z" fill="white"/>
</g>
</svg>
