<svg width="22" height="22" viewBox="0 0 22 22" fill="none" xmlns="http://www.w3.org/2000/svg">
<g id="masked_transitions">
<mask id="mask0_115_2987" style="mask-type:alpha" maskUnits="userSpaceOnUse" x="0" y="0" width="22" height="22">
<rect id="Bounding box" width="22" height="22" fill="#D9D9D9"/>
</mask>
<g mask="url(#mask0_115_2987)">
<path id="masked_transitions_2" d="M8.2498 20.1667C6.47757 20.1667 4.96507 19.5403 3.7123 18.2875C2.45952 17.0348 1.83313 15.5223 1.83313 13.75C1.83313 11.9778 2.45952 10.4653 3.7123 9.21254C4.96507 7.95976 6.47757 7.33337 8.2498 7.33337C10.022 7.33337 11.5345 7.95976 12.7873 9.21254C14.0401 10.4653 14.6665 11.9778 14.6665 13.75C14.6665 15.5223 14.0401 17.0348 12.7873 18.2875C11.5345 19.5403 10.022 20.1667 8.2498 20.1667ZM8.2498 18.3334C9.51785 18.3334 10.5988 17.8865 11.4925 16.9927C12.3863 16.099 12.8331 15.0181 12.8331 13.75C12.8331 12.482 12.3863 11.4011 11.4925 10.5073C10.5988 9.61358 9.51785 9.16671 8.2498 9.16671C6.98174 9.16671 5.90084 9.61358 5.00709 10.5073C4.11334 11.4011 3.66646 12.482 3.66646 13.75C3.66646 15.0181 4.11334 16.099 5.00709 16.9927C5.90084 17.8865 6.98174 18.3334 8.2498 18.3334ZM15.5373 14.3917C15.5679 14.3 15.5831 14.2007 15.5831 14.0938V13.75C15.5831 11.7181 14.8689 9.98789 13.4404 8.55942C12.0119 7.13094 10.2817 6.41671 8.2498 6.41671H7.90605C7.7991 6.41671 7.6998 6.43199 7.60813 6.46254C8.00535 5.1181 8.75778 4.01046 9.86542 3.13962C10.9731 2.26879 12.2679 1.83337 13.7498 1.83337C15.522 1.83337 17.0345 2.45976 18.2873 3.71254C19.5401 4.96532 20.1665 6.47782 20.1665 8.25004C20.1665 9.73198 19.731 11.0268 18.8602 12.1344C17.9894 13.2421 16.8817 13.9945 15.5373 14.3917Z" fill="white"/>
</g>
</g>
</svg>
