<svg width="20" height="20" viewBox="0 0 20 20" fill="none" xmlns="http://www.w3.org/2000/svg">
<mask id="mask0_20_2434" style="mask-type:alpha" maskUnits="userSpaceOnUse" x="0" y="0" width="20" height="20">
<rect width="20" height="20" fill="#D9D9D9"/>
</mask>
<g mask="url(#mask0_20_2434)">
<path d="M4.56913 12.4282L3.84381 14.4541C3.79378 14.6208 3.70208 14.75 3.56868 14.8417C3.43529 14.9334 3.28522 14.9793 3.11848 14.9793C2.83502 14.9793 2.60993 14.8626 2.44318 14.6291C2.27644 14.3957 2.2431 14.1456 2.34314 13.8788L5.49454 5.5251C5.56123 5.35836 5.66128 5.22496 5.79467 5.12492C5.92806 5.02488 6.08647 4.97485 6.26988 4.97485H6.92017C7.10358 4.97485 7.26199 5.02488 7.39538 5.12492C7.52877 5.22496 7.62882 5.35836 7.69551 5.5251L10.8469 13.9038C10.947 14.1706 10.9178 14.4165 10.7594 14.6416C10.601 14.8667 10.38 14.9793 10.0966 14.9793C9.91316 14.9793 9.75476 14.9293 9.62137 14.8292C9.48798 14.7292 9.38793 14.5958 9.32123 14.429L8.62092 12.4282H4.56913ZM5.09436 10.9775H8.09569L6.64505 6.82567H6.545L5.09436 10.9775ZM14.3235 15.2544C13.5064 15.2544 12.8645 15.0418 12.3976 14.6166C11.9307 14.1914 11.6973 13.612 11.6973 12.8784C11.6973 12.178 11.9682 11.607 12.5101 11.1651C13.0521 10.7232 13.7482 10.5023 14.5986 10.5023C14.9821 10.5023 15.3364 10.5315 15.6615 10.5898C15.9867 10.6482 16.266 10.7441 16.4994 10.8775V10.5273C16.4994 10.0771 16.3452 9.71862 16.0367 9.45184C15.7282 9.18505 15.3072 9.05166 14.7737 9.05166C14.5235 9.05166 14.2859 9.08918 14.0608 9.16421C13.8357 9.23924 13.6315 9.34346 13.4481 9.47685C13.298 9.59357 13.1313 9.66026 12.9478 9.67694C12.7644 9.69361 12.5977 9.64359 12.4476 9.52687C12.2976 9.41015 12.21 9.26426 12.185 9.08918C12.16 8.9141 12.2142 8.75987 12.3476 8.62647C12.6644 8.34301 13.0229 8.12625 13.4231 7.97618C13.8232 7.82612 14.2818 7.75108 14.7987 7.75108C15.8325 7.75108 16.6245 7.99703 17.1747 8.48891C17.725 8.9808 18.0001 9.69361 18.0001 10.6274V14.429C18.0001 14.6291 17.9292 14.8 17.7875 14.9418C17.6458 15.0835 17.4748 15.1544 17.2748 15.1544C17.0747 15.1544 16.8996 15.0793 16.7495 14.9293C16.5995 14.7792 16.5244 14.6041 16.5244 14.404V14.1789H16.4494C16.2326 14.5124 15.9408 14.775 15.574 14.9668C15.2072 15.1585 14.7903 15.2544 14.3235 15.2544ZM14.5736 14.0039C15.1071 14.0039 15.5615 13.8163 15.9367 13.4411C16.3118 13.0659 16.4994 12.6116 16.4994 12.078C16.266 11.9446 15.9992 11.8446 15.6991 11.7779C15.3989 11.7112 15.1238 11.6778 14.8737 11.6778C14.3401 11.6778 13.9316 11.782 13.6482 11.9905C13.3647 12.1989 13.223 12.4949 13.223 12.8784C13.223 13.2118 13.348 13.4828 13.5981 13.6912C13.8482 13.8996 14.1734 14.0039 14.5736 14.0039Z" fill="#EEEEEE"/>
</g>
</svg>
