<svg width="25" height="25" viewBox="0 0 25 25" fill="none" xmlns="http://www.w3.org/2000/svg">
<mask id="mask0_368_800" style="mask-type:alpha" maskUnits="userSpaceOnUse" x="0" y="0" width="25" height="25">
<rect x="0.708984" y="0.893311" width="24" height="24" fill="#D9D9D9"/>
</mask>
<g mask="url(#mask0_368_800)">
<path d="M11.709 10.8933H9.70898C9.42565 10.8933 9.18815 10.7975 8.99648 10.6058C8.80482 10.4141 8.70898 10.1766 8.70898 9.89331C8.70898 9.60998 8.80482 9.37248 8.99648 9.18081C9.18815 8.98914 9.42565 8.89331 9.70898 8.89331H15.709C15.9923 8.89331 16.2298 8.98914 16.4215 9.18081C16.6132 9.37248 16.709 9.60998 16.709 9.89331C16.709 10.1766 16.6132 10.4141 16.4215 10.6058C16.2298 10.7975 15.9923 10.8933 15.709 10.8933H13.709V15.8933C13.709 16.1766 13.6132 16.4141 13.4215 16.6058C13.2298 16.7975 12.9923 16.8933 12.709 16.8933C12.4257 16.8933 12.1882 16.7975 11.9965 16.6058C11.8048 16.4141 11.709 16.1766 11.709 15.8933V10.8933ZM1.70898 22.8933V18.8933C1.70898 18.61 1.80482 18.3725 1.99648 18.1808C2.18815 17.9891 2.42565 17.8933 2.70898 17.8933H3.70898V7.89331H2.70898C2.42565 7.89331 2.18815 7.79748 1.99648 7.60581C1.80482 7.41414 1.70898 7.17664 1.70898 6.89331V2.89331C1.70898 2.60998 1.80482 2.37248 1.99648 2.18081C2.18815 1.98914 2.42565 1.89331 2.70898 1.89331H6.70898C6.99232 1.89331 7.22982 1.98914 7.42148 2.18081C7.61315 2.37248 7.70898 2.60998 7.70898 2.89331V3.89331H17.709V2.89331C17.709 2.60998 17.8048 2.37248 17.9965 2.18081C18.1882 1.98914 18.4257 1.89331 18.709 1.89331H22.709C22.9923 1.89331 23.2298 1.98914 23.4215 2.18081C23.6132 2.37248 23.709 2.60998 23.709 2.89331V6.89331C23.709 7.17664 23.6132 7.41414 23.4215 7.60581C23.2298 7.79748 22.9923 7.89331 22.709 7.89331H21.709V17.8933H22.709C22.9923 17.8933 23.2298 17.9891 23.4215 18.1808C23.6132 18.3725 23.709 18.61 23.709 18.8933V22.8933C23.709 23.1766 23.6132 23.4141 23.4215 23.6058C23.2298 23.7975 22.9923 23.8933 22.709 23.8933H18.709C18.4257 23.8933 18.1882 23.7975 17.9965 23.6058C17.8048 23.4141 17.709 23.1766 17.709 22.8933V21.8933H7.70898V22.8933C7.70898 23.1766 7.61315 23.4141 7.42148 23.6058C7.22982 23.7975 6.99232 23.8933 6.70898 23.8933H2.70898C2.42565 23.8933 2.18815 23.7975 1.99648 23.6058C1.80482 23.4141 1.70898 23.1766 1.70898 22.8933ZM7.70898 19.8933H17.709V18.8933C17.709 18.61 17.8048 18.3725 17.9965 18.1808C18.1882 17.9891 18.4257 17.8933 18.709 17.8933H19.709V7.89331H18.709C18.4257 7.89331 18.1882 7.79748 17.9965 7.60581C17.8048 7.41414 17.709 7.17664 17.709 6.89331V5.89331H7.70898V6.89331C7.70898 7.17664 7.61315 7.41414 7.42148 7.60581C7.22982 7.79748 6.99232 7.89331 6.70898 7.89331H5.70898V17.8933H6.70898C6.99232 17.8933 7.22982 17.9891 7.42148 18.1808C7.61315 18.3725 7.70898 18.61 7.70898 18.8933V19.8933ZM3.70898 5.89331H5.70898V3.89331H3.70898V5.89331ZM19.709 5.89331H21.709V3.89331H19.709V5.89331ZM19.709 21.8933H21.709V19.8933H19.709V21.8933ZM3.70898 21.8933H5.70898V19.8933H3.70898V21.8933Z" fill="white"/>
</g>
</svg>
