<svg width="20" height="20" viewBox="0 0 20 20" fill="none" xmlns="http://www.w3.org/2000/svg">
<mask id="mask0_266_1191" style="mask-type:alpha" maskUnits="userSpaceOnUse" x="0" y="0" width="20" height="20">
<rect width="20" height="20" fill="#D9D9D9"/>
</mask>
<g mask="url(#mask0_266_1191)">
<path d="M8.83329 11.5L7.04163 9.70829C6.88885 9.55552 6.6944 9.47913 6.45829 9.47913C6.22218 9.47913 6.02774 9.55552 5.87496 9.70829C5.72218 9.86107 5.64579 10.0555 5.64579 10.2916C5.64579 10.5277 5.72218 10.7222 5.87496 10.875L8.24996 13.25C8.41663 13.4166 8.61107 13.5 8.83329 13.5C9.05551 13.5 9.24996 13.4166 9.41663 13.25L14.125 8.54163C14.2777 8.38885 14.3541 8.1944 14.3541 7.95829C14.3541 7.72218 14.2777 7.52774 14.125 7.37496C13.9722 7.22218 13.7777 7.14579 13.5416 7.14579C13.3055 7.14579 13.1111 7.22218 12.9583 7.37496L8.83329 11.5ZM9.99996 18.3333C8.84718 18.3333 7.76385 18.1145 6.74996 17.677C5.73607 17.2395 4.85413 16.6458 4.10413 15.8958C3.35413 15.1458 2.76038 14.2638 2.32288 13.25C1.88538 12.2361 1.66663 11.1527 1.66663 9.99996C1.66663 8.84718 1.88538 7.76385 2.32288 6.74996C2.76038 5.73607 3.35413 4.85413 4.10413 4.10413C4.85413 3.35413 5.73607 2.76038 6.74996 2.32288C7.76385 1.88538 8.84718 1.66663 9.99996 1.66663C11.1527 1.66663 12.2361 1.88538 13.25 2.32288C14.2638 2.76038 15.1458 3.35413 15.8958 4.10413C16.6458 4.85413 17.2395 5.73607 17.677 6.74996C18.1145 7.76385 18.3333 8.84718 18.3333 9.99996C18.3333 11.1527 18.1145 12.2361 17.677 13.25C17.2395 14.2638 16.6458 15.1458 15.8958 15.8958C15.1458 16.6458 14.2638 17.2395 13.25 17.677C12.2361 18.1145 11.1527 18.3333 9.99996 18.3333Z" fill="#0DCC70"/>
</g>
</svg>
