<svg width="33" height="16" viewBox="0 0 33 16" fill="none" xmlns="http://www.w3.org/2000/svg">
<g clip-path="url(#clip0_106_2834)">
<path d="M33 1.37515C32.9105 0.670738 32.367 0.109305 31.6748 0C28.6411 0 4.37207 0 1.33837 0C0.580226 0.119794 0 0.7817 0 1.57941C0 2.86182 0 13.1189 0 14.4007C0 15.284 0.70993 16 1.5863 16C4.57007 16 28.4431 16 31.4269 16C32.2338 16 32.9001 15.3922 33 14.6055C33 11.9596 33 2.69786 33 1.37515Z" fill="#F6C700"/>
<path d="M3.9801 3.21509H6.59887V12.9118H3.9801V3.21509Z" fill="black"/>
<path d="M11.5471 7.68172C11.3221 6.20388 11.197 5.38244 11.1723 5.21848C11.0627 4.42739 10.9583 3.73899 10.8584 3.15161C10.6317 3.15161 9.50053 3.15161 7.46313 3.15161V12.8483H9.75707L9.7651 6.44568L10.7304 12.8483H12.3644L13.2797 6.30325L13.2884 12.8483H15.5748V3.15161H12.1537L11.5471 7.68172Z" fill="black"/>
<path d="M19.8981 5.16879C19.9268 5.29245 19.9418 5.57289 19.9418 6.01122C19.9418 6.38716 19.9418 9.39472 19.9418 9.77066C19.9418 10.416 19.8981 10.8113 19.8115 10.957C19.7242 11.1028 19.4924 11.1751 19.1165 11.1751C19.1165 10.5386 19.1165 5.44647 19.1165 4.80996C19.4017 4.80996 19.5963 4.83922 19.6996 4.89663C19.8029 4.9546 19.8694 5.04514 19.8981 5.16879ZM21.081 12.7495C21.3926 12.6838 21.6543 12.5679 21.8667 12.4028C22.0784 12.2372 22.2271 12.0081 22.312 11.715C22.3975 11.4224 22.448 10.8411 22.448 9.97161C22.448 9.63155 22.448 6.90719 22.448 6.56658C22.448 5.64908 22.4107 5.03409 22.3528 4.72164C22.2942 4.40862 22.149 4.12432 21.9166 3.86927C21.6836 3.61423 21.3438 3.43095 20.8973 3.31943C20.4502 3.20792 19.7214 3.15161 18.4536 3.15161C18.3233 3.15161 17.6725 3.15161 16.5 3.15161V12.8483H19.6726C20.4038 12.8262 20.8732 12.7937 21.081 12.7495Z" fill="black"/>
<path d="M26.6732 11.3004C26.625 11.4235 26.4138 11.4859 26.2542 11.4859C26.0981 11.4859 25.9943 11.4262 25.9415 11.3065C25.8887 11.1872 25.8628 10.915 25.8628 10.4889C25.8628 10.2327 25.8628 8.18241 25.8628 7.92626C25.8628 7.48463 25.8858 7.20915 25.9323 7.0993C25.9782 6.99054 26.0792 6.93534 26.2353 6.93534C26.3948 6.93534 26.6089 6.99772 26.664 7.12303C26.7185 7.24835 26.7461 7.51609 26.7461 7.92626C26.7461 8.09188 26.7461 8.91995 26.7461 10.411C26.7294 10.9217 26.7053 11.2181 26.6732 11.3004ZM23.3399 12.7639H25.6975C25.7957 12.3934 25.8496 12.1875 25.8605 12.1461C26.074 12.3945 26.3088 12.5811 26.5664 12.7048C26.823 12.829 27.2069 12.8908 27.5042 12.8908C27.918 12.8908 28.275 12.7865 28.5763 12.5773C28.877 12.3686 29.0687 12.1213 29.1502 11.837C29.2317 11.5521 29.2724 11.1193 29.2724 10.5374C29.2724 10.2653 29.2724 8.08912 29.2724 7.81696C29.2724 7.23179 29.2587 6.84977 29.2317 6.67035C29.2047 6.49094 29.1244 6.30821 28.9907 6.12107C28.8569 5.93392 28.6624 5.78873 28.4076 5.68495C28.1527 5.58116 27.852 5.52927 27.5054 5.52927C27.2041 5.52927 26.8184 5.58724 26.5613 5.70151C26.3047 5.81578 26.0717 5.98913 25.8628 6.22154C25.8628 6.01121 25.8628 4.96011 25.8628 3.06714H23.3399V12.7639Z" fill="black"/>
</g>
<defs>
<clipPath id="clip0_106_2834">
<rect width="33" height="16" fill="white"/>
</clipPath>
</defs>
</svg>
