<svg width="16" height="17" viewBox="0 0 16 17" fill="none" xmlns="http://www.w3.org/2000/svg">
<g clip-path="url(#clip0_106_2459)">
<mask id="mask0_106_2459" style="mask-type:luminance" maskUnits="userSpaceOnUse" x="0" y="13" width="16" height="4">
<path d="M0.420067 13.3741H15.5779V16.4969H0.420067V13.3741Z" fill="#3DAD55"/>
</mask>
<g mask="url(#mask0_106_2459)">
<path fill-rule="evenodd" clip-rule="evenodd" d="M15.5576 14.4434C15.072 13.9736 14.4868 13.6065 13.8353 13.3741C13.6103 14.0087 13.3898 14.6442 13.174 15.2806C13.1699 15.2927 13.1528 15.2999 13.1351 15.2968C13.1323 15.2963 12.5975 15.2027 12.2055 15.1493C12.1913 15.3055 12.1734 15.484 12.1734 15.484C12.9994 15.5362 13.7058 15.9372 14.1218 16.4896C14.1347 16.5041 14.155 16.5033 14.1611 16.4878C14.3033 15.9139 14.3424 15.3015 14.2706 14.6846C14.2711 14.6781 14.2761 14.6733 14.2844 14.6716C14.6728 14.5495 15.1023 14.4827 15.5592 14.4896C15.584 14.4922 15.5834 14.4682 15.5576 14.4434ZM3.82043 15.484C2.99442 15.5362 2.28808 15.9372 1.87203 16.4896C1.8591 16.5041 1.83883 16.5033 1.83273 16.4878C1.6905 15.9139 1.65147 15.3015 1.72323 14.6846C1.72271 14.6781 1.71776 14.6733 1.70942 14.6716C1.32104 14.5495 0.891597 14.4827 0.434633 14.4896C0.409825 14.4922 0.410451 14.4682 0.436249 14.4434C0.921669 13.9738 1.50684 13.6066 2.15805 13.3743C2.38309 14.0087 2.60328 14.6442 2.8191 15.2806C2.82322 15.2927 2.84031 15.2999 2.85798 15.2968C2.8609 15.2963 3.38994 15.2036 3.78838 15.1492C3.80438 15.3166 3.82043 15.484 3.82043 15.484Z" fill="#3DAD55"/>
</g>
<path fill-rule="evenodd" clip-rule="evenodd" d="M4.02309 3.60918C4.04925 3.76725 4.03257 3.867 3.92584 3.97587C3.85558 4.04759 3.77266 4.08256 3.67442 4.08078C3.57613 4.07912 3.48696 4.03768 3.40842 3.96065C3.33123 3.88503 3.28938 3.7981 3.28568 3.69996C3.28198 3.60167 3.31252 3.51813 3.38137 3.44777C3.47867 3.34854 3.55904 3.3354 3.69558 3.34228L3.68829 3.02437C3.47789 3.01009 3.29444 3.08154 3.14178 3.23732C3.00263 3.37929 2.93608 3.54377 2.93801 3.73212C2.94124 3.91906 3.01248 4.08068 3.15445 4.21983C3.29647 4.35893 3.46095 4.43101 3.64659 4.43185C3.83218 4.43273 3.9939 4.36144 4.133 4.21947C4.30457 4.04441 4.37352 3.84443 4.33991 3.62231L4.02309 3.60918Z" fill="#0A0B09"/>
<path fill-rule="evenodd" clip-rule="evenodd" d="M4.79813 3.25281L4.67456 3.057L5.19198 2.73043L5.03338 2.47907L4.51591 2.80554L4.40568 2.63094L4.95088 2.28686L4.78609 2.02576L3.92422 2.5696L4.64631 3.71384L5.50817 3.16994L5.34333 2.90878L4.79813 3.25281Z" fill="#0A0B09"/>
<path fill-rule="evenodd" clip-rule="evenodd" d="M5.95221 2.22163L5.79513 2.27552L5.69194 1.97418L5.84902 1.92034C6.00235 1.86775 6.08313 1.88907 6.1182 1.99132C6.15385 2.0954 6.0983 2.1716 5.95221 2.22163ZM6.45175 1.8811C6.35414 1.59617 6.10314 1.50679 5.76897 1.62129L5.25947 1.79583L5.69809 3.07604L6.03049 2.96206L5.89467 2.56586L6.02617 2.52073L6.3975 2.8363L6.77916 2.70549L6.35065 2.34228C6.48021 2.21423 6.51372 2.06189 6.45175 1.8811Z" fill="#0A0B09"/>
<path fill-rule="evenodd" clip-rule="evenodd" d="M7.69923 1.2373L6.62041 1.36744L6.65741 1.674L7.02145 1.63006L7.14648 2.66672L7.49718 2.62446L7.37215 1.58774L7.73619 1.54386L7.69923 1.2373Z" fill="#0A0B09"/>
<path fill-rule="evenodd" clip-rule="evenodd" d="M8.13535 2.60663L8.48615 2.62576L8.56 1.27467L8.2092 1.25549L8.13535 2.60663Z" fill="#0A0B09"/>
<path fill-rule="evenodd" clip-rule="evenodd" d="M10.0122 1.86271L10.0848 1.56252L9.15779 1.33862L8.84003 2.65401L9.18155 2.73646L9.2985 2.25234L9.84083 2.38342L9.91062 2.09438L9.36834 1.9634L9.42682 1.72132L10.0122 1.86271Z" fill="#0A0B09"/>
<path fill-rule="evenodd" clip-rule="evenodd" d="M10.5642 1.75378L10.0221 2.9936L10.344 3.13432L10.8861 1.8945L10.5642 1.75378Z" fill="#0A0B09"/>
<path fill-rule="evenodd" clip-rule="evenodd" d="M11.1356 3.2265L11.266 3.03502L11.7718 3.37941L11.9391 3.13357L11.4333 2.78929L11.5496 2.61845L12.0825 2.98129L12.2564 2.72602L11.4138 2.15247L10.6523 3.27101L11.4948 3.84466L11.6686 3.58929L11.1356 3.2265Z" fill="#0A0B09"/>
<path fill-rule="evenodd" clip-rule="evenodd" d="M12.7431 4.15509C12.5571 4.32348 12.3694 4.30331 12.1803 4.09432L12.1168 4.02417L12.6621 3.53057L12.7243 3.59931C12.9147 3.80971 12.9205 3.99446 12.7431 4.15509ZM13.2153 3.89158C13.1912 3.71819 13.1125 3.56804 12.983 3.42498L12.6553 3.06287L11.6521 3.97101L11.9798 4.33307C12.2247 4.6035 12.5995 4.76158 12.9802 4.41692C13.1619 4.25244 13.2396 4.06498 13.2153 3.89158Z" fill="#0A0B09"/>
<path fill-rule="evenodd" clip-rule="evenodd" d="M14.1704 13.5741C14.1624 13.5688 14.1544 13.5635 14.1464 13.5583C14.1618 13.5683 14.1704 13.5741 14.1704 13.5741ZM13.896 13.4069C13.876 13.3958 13.8559 13.3849 13.8358 13.3741C13.8561 13.3849 13.8762 13.3959 13.896 13.4069Z" fill="#79C08D"/>
<path fill-rule="evenodd" clip-rule="evenodd" d="M13.1745 15.2806C13.3828 14.6673 13.6189 13.9857 13.8358 13.3741C13.8559 13.3813 13.876 13.3886 13.896 13.396C14.0054 13.4369 14.1029 13.4783 14.1464 13.4972C14.1544 13.5007 14.1624 13.5043 14.1704 13.5078L13.1745 15.2806Z" fill="#0EA248"/>
<path fill-rule="evenodd" clip-rule="evenodd" d="M1.82452 13.5078C1.82452 13.5078 1.82699 13.5067 1.83172 13.5046C1.82936 13.5057 1.82689 13.5067 1.82452 13.5078Z" fill="#79C08D"/>
<path fill-rule="evenodd" clip-rule="evenodd" d="M2.81861 15.2777L1.82452 13.5078C1.82682 13.5067 1.82921 13.5057 1.83151 13.5047C1.86361 13.4906 2.00235 13.4308 2.15802 13.3745C2.37431 13.9844 2.6103 14.6645 2.81814 15.2763C2.8183 15.2767 2.81845 15.2773 2.81861 15.2777Z" fill="#0EA248"/>
<path fill-rule="evenodd" clip-rule="evenodd" d="M12.1739 15.4839L12.206 15.1492C12.1918 15.3048 12.1741 15.4827 12.1739 15.4839ZM13.1398 15.2972C13.1384 15.2971 13.137 15.2969 13.1356 15.2967C13.134 15.2964 12.9433 15.263 12.7066 15.2248C12.8523 15.2481 12.9976 15.2724 13.1398 15.2972Z" fill="#309E53"/>
<path fill-rule="evenodd" clip-rule="evenodd" d="M12.1739 15.4839C12.1741 15.4827 12.1918 15.3048 12.206 15.1492C12.3706 15.1726 12.5388 15.1981 12.7066 15.2248C12.9433 15.263 13.134 15.2964 13.1356 15.2967C13.137 15.2969 13.1384 15.2971 13.1398 15.2972L13.1409 15.2974L12.1739 15.4839Z" fill="#129346"/>
<path fill-rule="evenodd" clip-rule="evenodd" d="M2.85447 15.2973C2.98757 15.274 3.12344 15.2513 3.25978 15.2294C3.03542 15.2658 2.86015 15.2965 2.85848 15.2968C2.85712 15.297 2.85582 15.2972 2.85447 15.2973Z" fill="#309E53"/>
<path fill-rule="evenodd" clip-rule="evenodd" d="M3.82093 15.484L2.85337 15.2975L2.85447 15.2973C2.85582 15.2972 2.85712 15.297 2.85848 15.2968C2.86015 15.2965 3.03542 15.2658 3.25978 15.2294C3.43698 15.2009 3.61501 15.1739 3.78888 15.1492C3.79289 15.191 3.7969 15.2329 3.80065 15.2721C3.80441 15.3114 3.8079 15.348 3.81092 15.3794C3.81389 15.4107 3.81639 15.4369 3.81817 15.4552C3.81994 15.4735 3.82093 15.484 3.82093 15.484Z" fill="#129346"/>
<path fill-rule="evenodd" clip-rule="evenodd" d="M13.0803 12.3099C13.0066 12.2988 12.9328 12.2883 12.859 12.2776C13.5688 11.437 14.013 10.3822 14.0479 9.16821C14.0828 10.3799 13.7156 11.4442 13.0803 12.3099Z" fill="#ADADAA"/>
<path fill-rule="evenodd" clip-rule="evenodd" d="M2.83268 12.3223C2.32334 11.6009 1.99797 10.7326 1.93574 9.73531C1.92344 9.53773 1.91927 9.34135 1.92402 9.14685C1.9262 9.23842 1.93001 9.33025 1.93574 9.42234C2.00626 10.5529 2.41475 11.5178 3.04636 12.2907C2.97512 12.3011 2.90382 12.3114 2.83268 12.3223Z" fill="#ADADAA"/>
<path fill-rule="evenodd" clip-rule="evenodd" d="M9.06335 14.1873C9.10931 14.2003 9.16028 14.2079 9.216 14.2101C9.16539 14.2022 9.11447 14.1946 9.06335 14.1873Z" fill="#E3662A"/>
<path fill-rule="evenodd" clip-rule="evenodd" d="M2.38676 12.394C2.26835 12.2489 2.15479 12.0991 2.04706 11.9441C1.20448 10.7316 0.759091 9.30724 0.759091 7.82492C0.759091 5.91362 1.5088 4.147 2.8701 2.85054C4.219 1.5659 6.03591 0.858405 7.98624 0.858405C9.93658 0.858405 11.7535 1.5659 13.1024 2.85054C14.4637 4.147 15.2134 5.91362 15.2134 7.82492C15.2134 9.30151 14.7712 10.7213 13.9345 11.931C13.825 12.0894 13.7091 12.2423 13.5884 12.3905C13.7128 12.4112 13.837 12.4326 13.9611 12.4547C14.9538 11.1754 15.5458 9.5696 15.5458 7.82492C15.5458 3.64996 12.1613 0.526001 7.98624 0.526001C3.81123 0.526001 0.426739 3.64996 0.426739 7.82492C0.426739 9.57132 1.01989 11.1786 2.01433 12.4585C2.13837 12.4363 2.26247 12.4148 2.38676 12.394Z" fill="#E3662A"/>
<path fill-rule="evenodd" clip-rule="evenodd" d="M13.2637 13.0951H13.2426V13.0555H13.2637C13.2847 13.0555 13.2955 13.0619 13.2955 13.0747C13.2955 13.0881 13.2847 13.0951 13.2637 13.0951Z" fill="#E3662A"/>
<path fill-rule="evenodd" clip-rule="evenodd" d="M13.2637 13.0555H13.2426V13.0951H13.2637C13.2847 13.0951 13.2955 13.0881 13.2955 13.0747C13.2955 13.0619 13.2847 13.0555 13.2637 13.0555Z" fill="#128843"/>
<path fill-rule="evenodd" clip-rule="evenodd" d="M4.67148 13.4083C4.56115 13.4083 4.46296 13.4928 4.46296 13.609C4.46296 13.724 4.56115 13.8075 4.67148 13.8075C4.7853 13.8075 4.88 13.7277 4.88 13.609C4.88 13.4909 4.78358 13.4083 4.67148 13.4083Z" fill="#128843"/>
<path fill-rule="evenodd" clip-rule="evenodd" d="M11.4547 13.3524C11.3573 13.3524 11.2889 13.4129 11.2705 13.4998H11.6311C11.6232 13.4155 11.5626 13.3524 11.4547 13.3524Z" fill="#128843"/>
<path fill-rule="evenodd" clip-rule="evenodd" d="M13.2949 13.1779L13.2643 13.134H13.2426V13.1779H13.1993V13.018H13.2713C13.3096 13.018 13.3395 13.0365 13.3395 13.0747C13.3395 13.0995 13.3287 13.1168 13.3064 13.127L13.344 13.1779H13.2949ZM13.2637 12.9714C13.2286 12.9714 13.1986 12.9842 13.1745 13.0097C13.1502 13.0345 13.1381 13.0658 13.1381 13.1021C13.1381 13.1384 13.1502 13.169 13.1745 13.1939C13.1986 13.2187 13.2286 13.2309 13.2637 13.2309C13.2994 13.2309 13.3293 13.2187 13.3535 13.1939C13.3784 13.169 13.3905 13.1384 13.3905 13.1021C13.3905 13.0658 13.3784 13.0345 13.3535 13.0097C13.3293 12.9842 13.2994 12.9714 13.2637 12.9714Z" fill="#128843"/>
<path fill-rule="evenodd" clip-rule="evenodd" d="M6.36857 12.4369C6.43117 12.4356 6.46374 12.6181 6.62322 12.6097C6.69488 12.6059 6.73298 12.517 6.69655 12.4552L6.69571 12.4538C6.66397 12.4016 6.61451 12.3818 6.55828 12.372C6.5195 12.3652 6.4799 12.3615 6.44399 12.3434C6.42496 12.3338 6.41319 12.319 6.41319 12.2965C6.41319 12.2732 6.42236 12.256 6.44341 12.2453C6.47437 12.2298 6.50767 12.2306 6.54103 12.2303C6.56427 12.2302 6.58575 12.2244 6.60362 12.2079C6.64344 12.1712 6.65178 12.104 6.62582 12.0552C6.59299 11.9936 6.52221 11.9865 6.4713 12.0186C6.4358 12.041 6.42319 12.0765 6.4136 12.1147C6.40704 12.1408 6.39093 12.1821 6.3373 12.18C6.29649 12.1785 6.27507 12.138 6.28253 12.0979C6.28894 12.0633 6.30129 12.0327 6.30588 11.9979C6.31093 11.9597 6.30509 11.9238 6.27507 11.897C6.25261 11.877 6.22509 11.8677 6.19434 11.8712C6.19434 11.8712 6.11695 11.8736 6.09058 11.9422C6.05837 12.0258 6.11158 12.0522 6.14932 12.0828C6.17048 12.1001 6.19221 12.1176 6.20039 12.1458C6.20654 12.1671 6.20112 12.1903 6.18476 12.2009C6.16261 12.2152 6.12868 12.2126 6.10392 12.1918C6.07515 12.1675 6.06619 12.1094 6.01006 12.0875C5.96321 12.0692 5.90186 12.0862 5.88096 12.1279C5.85319 12.1835 5.88868 12.2353 5.94877 12.2596C5.98275 12.2732 6.09558 12.2781 6.08959 12.3351C6.08438 12.3847 5.9827 12.3456 5.93704 12.3625C5.86397 12.3896 5.861 12.4608 5.87742 12.4977C5.90077 12.5503 5.96649 12.567 6.01381 12.5454C6.06614 12.5216 6.11054 12.4147 6.16521 12.4421C6.21733 12.4681 6.16651 12.5294 6.16391 12.5894C6.16156 12.6428 6.19909 12.695 6.28904 12.6858C6.34319 12.6804 6.38942 12.6155 6.35815 12.5581C6.34929 12.5418 6.33517 12.5156 6.33011 12.4978C6.32089 12.4653 6.34189 12.4374 6.36857 12.4369Z" fill="#128843"/>
<path fill-rule="evenodd" clip-rule="evenodd" d="M7.92881 13.4348C7.87038 13.4348 7.82113 13.4555 7.78642 13.4945C7.75578 13.529 7.73889 13.5752 7.73889 13.6247C7.73889 13.7493 7.83447 13.8146 7.92881 13.8146C7.98723 13.8146 8.03648 13.794 8.07119 13.7549C8.10184 13.7204 8.11872 13.6742 8.11872 13.6247C8.11872 13.5 8.02319 13.4348 7.92881 13.4348Z" fill="#128843"/>
<path fill-rule="evenodd" clip-rule="evenodd" d="M13.3873 13.2264C13.3535 13.2601 13.3121 13.2773 13.2637 13.2773C13.2152 13.2773 13.1745 13.2601 13.1406 13.2264C13.1075 13.1919 13.091 13.1505 13.091 13.1021C13.091 13.053 13.1075 13.0115 13.1406 12.9771C13.1745 12.9427 13.2152 12.9255 13.2637 12.9255C13.3121 12.9255 13.3535 12.9427 13.3873 12.9771C13.4211 13.0115 13.4383 13.053 13.4383 13.1021C13.4383 13.1505 13.4211 13.1919 13.3873 13.2264ZM12.9418 14.1179C12.8485 14.1949 12.7258 14.2341 12.5775 14.2341C12.3852 14.2341 12.2293 14.1937 12.0897 14.1023L12.0633 14.0836L12.2453 13.7833C12.4543 13.9173 12.5623 13.8973 12.6035 13.8941C12.6939 13.8871 12.7037 13.7871 12.6289 13.7889C12.5714 13.7902 12.4579 13.802 12.2896 13.7236C12.1718 13.6515 12.0951 13.5676 12.0951 13.4292C12.0951 13.3096 12.1447 13.2117 12.2427 13.1382C12.3369 13.0676 12.4269 13.0285 12.5613 13.0223C12.7354 13.0143 12.8615 13.0522 13.0179 13.1327L13.0508 13.1546L12.8847 13.4281C12.7029 13.3553 12.6086 13.3354 12.5426 13.348C12.4653 13.3627 12.4765 13.4377 12.5335 13.4453C12.5905 13.4529 12.6815 13.4284 12.8531 13.4892C13.002 13.5487 13.0904 13.6455 13.0904 13.8105C13.0904 13.9352 13.0404 14.0386 12.9418 14.1179ZM12.0305 13.7201H11.2705C11.2916 13.8118 11.3931 13.8636 11.4872 13.8636C11.5978 13.8636 11.6791 13.8496 11.7375 13.7727L12.0151 14.0338C11.8626 14.1962 11.6717 14.2281 11.492 14.2281C11.3132 14.2281 11.165 14.174 11.0474 14.0682C10.9298 13.9624 10.871 13.8165 10.871 13.6331C10.871 13.452 10.9251 13.3062 11.0357 13.1933C11.1462 13.078 11.2897 13.0215 11.4637 13.0215C11.6448 13.0215 11.786 13.078 11.8847 13.1933C11.9835 13.3085 12.0329 13.4472 12.0329 13.6119L12.0305 13.7201ZM10.3069 14.2017C9.98254 14.28 9.62173 14.1387 9.53871 13.7948C9.48013 13.552 9.56821 13.3553 9.73499 13.2267C9.75093 13.2137 9.77089 13.201 9.78429 13.1964C9.7009 13.2035 9.6505 13.1994 9.59969 13.2165C9.59411 13.2184 9.58906 13.2124 9.59182 13.2072C9.64618 13.1042 9.77095 13.054 9.85934 13.0881C9.7993 13.0356 9.75213 12.9938 9.75213 12.9938L9.83442 12.9257C9.83442 12.9257 9.88712 13.0035 9.92542 13.0601C9.97577 12.9475 10.1007 12.9159 10.1668 12.9778C10.1707 12.9815 10.1684 12.9881 10.1631 12.9889C10.1194 12.9955 10.1033 13.0409 10.1068 13.0713L10.1447 13.0666C10.4553 13.0268 10.7225 13.1815 10.7972 13.491C10.8802 13.8349 10.6313 14.1234 10.3069 14.2017ZM9.44834 14.2055L9.42192 14.2066C9.37569 14.2086 9.31393 14.2113 9.24977 14.2113C8.94541 14.2113 8.77082 14.0585 8.77082 13.7629V13.4462H8.6523V13.0514H8.77082V12.7391H9.22491V13.0514H9.40404V13.4462H9.22491V13.7332C9.22491 13.7889 9.24873 13.8127 9.30444 13.8127H9.44834V14.2055ZM8.565 14.1968H8.12529V14.0682L8.09673 14.0988C8.01767 14.1834 7.91828 14.2281 7.80915 14.2281C7.73108 14.2281 7.64925 14.2047 7.57248 14.1603C7.40117 14.0612 7.29902 13.8606 7.29913 13.6236C7.29923 13.3877 7.40143 13.1879 7.57248 13.0892C7.64925 13.0449 7.73061 13.0215 7.80785 13.0215C7.91729 13.0215 8.01715 13.0674 8.09663 13.1542L8.12529 13.1855V13.0539H8.565V14.1968ZM7.22278 14.1983H6.7617V13.5758C6.7617 13.478 6.7199 13.4285 6.6374 13.4285C6.55531 13.4285 6.53884 13.48 6.53347 13.4969C6.5193 13.5477 6.5169 13.5766 6.5169 13.6382V14.1983H6.06249V13.5758C6.06249 13.478 6.01996 13.4285 5.936 13.4285C5.88831 13.4285 5.85715 13.4517 5.84495 13.4715C5.83635 13.4845 5.82989 13.5079 5.82583 13.5243C5.8177 13.5713 5.8177 13.5882 5.8177 13.6382V14.1983H5.376V13.0514H5.81327L5.81295 13.1592C5.84396 13.096 5.96227 13.0215 6.12821 13.0215C6.26481 13.0215 6.37368 13.0685 6.44295 13.1573L6.45519 13.1731L6.46843 13.1581C6.55104 13.0646 6.64573 13.0247 6.78515 13.0247C6.91674 13.0247 7.22278 13.0745 7.22278 13.5356V14.1983ZM4.67977 14.2281C4.34663 14.2281 4.04326 14.0207 4.04326 13.6249C4.04326 13.3094 4.22989 13.1136 4.4811 13.0471C4.62067 13.0166 4.70431 13.0118 4.85608 13.0416C5.11745 13.1021 5.29965 13.3001 5.29965 13.6249C5.29965 14.0207 5.01295 14.2281 4.67977 14.2281ZM3.80404 14.1983H3.36146V13.128H2.97162V12.6927H4.19393V13.128H3.80404V14.1983ZM14.1131 12.4815C13.0963 12.2958 12.07 12.1578 11.0392 12.0658C11.0452 12.106 11.0485 12.1486 11.0485 12.1943V12.8556H10.5912V12.2322C10.5912 12.1362 10.5497 12.0875 10.468 12.0875C10.3822 12.0875 10.3291 12.1236 10.3291 12.3035V12.8556H9.87127V11.9812C9.84537 11.9798 9.81952 11.9783 9.79362 11.9769C9.79414 11.9882 9.79492 11.9993 9.79492 12.0108L9.79257 12.119H9.0325C9.05366 12.2108 9.15518 12.2625 9.24925 12.2625C9.35979 12.2625 9.44115 12.2486 9.49957 12.1716L9.77715 12.4328C9.6246 12.5952 9.43375 12.6271 9.25399 12.6271C9.07523 12.6271 8.92706 12.573 8.80943 12.4671C8.69186 12.3613 8.63307 12.2155 8.63307 12.0321C8.63307 11.9989 8.63552 11.9673 8.63917 11.9365C8.60915 11.9359 8.57918 11.9354 8.54916 11.9349V12.1045H8.37019V12.3912C8.37019 12.447 8.39396 12.4707 8.44967 12.4707H8.59341V12.8631L8.56699 12.8643C8.52086 12.8662 8.45915 12.8688 8.395 12.8688C8.09089 12.8688 7.91651 12.7163 7.91651 12.4208V12.1045H7.79805V11.9308C7.76876 11.9309 7.73947 11.9314 7.71018 11.9317V12.1037H7.53126V12.3904C7.53126 12.4461 7.55502 12.4698 7.61074 12.4698H7.75443V12.8623L7.72805 12.8634C7.68188 12.8654 7.62017 12.868 7.55607 12.868C7.25196 12.868 7.07753 12.7154 7.07753 12.42V12.1037H6.95912V11.9455C6.91721 11.9468 6.87531 11.9486 6.83341 11.95C6.88667 12.0393 6.91716 12.1499 6.91716 12.2819C6.91716 12.6776 6.64219 12.8849 6.28842 12.8849C5.9347 12.8849 5.6431 12.6776 5.6431 12.2819C5.6431 12.1772 5.664 12.086 5.70064 12.0081C5.67297 12.0099 5.64529 12.0117 5.61762 12.0137C5.58937 12.1434 5.51714 12.2443 5.40138 12.3143L5.3871 12.323L5.70444 12.8556H5.19109L4.90528 12.3671H4.8294V12.8556H4.37353V12.1224C3.53819 12.2113 2.70645 12.3307 1.88097 12.4815C1.85923 12.4855 1.84501 12.4998 1.84975 12.5128C2.18278 13.4334 2.50606 14.356 2.8196 15.2806C2.82372 15.2927 2.84081 15.2999 2.85848 15.2968C6.24615 14.7031 9.74796 14.7031 13.1356 15.2968C13.1533 15.2999 13.1703 15.2927 13.1745 15.2806C13.4881 14.356 13.8113 13.4334 14.1444 12.5128C14.1491 12.4998 14.1348 12.4855 14.1131 12.4815Z" fill="#128843"/>
<path fill-rule="evenodd" clip-rule="evenodd" d="M8.94009 4.1382C9.38153 4.09869 10.3468 4.12105 10.8179 4.58328C10.8462 4.61101 10.8218 4.67516 10.7813 4.66422C10.0911 4.47811 9.01394 5.39433 8.31573 4.80186C8.29634 4.97515 8.14009 5.81142 6.94807 5.68749C6.91987 5.68457 6.90867 5.65372 6.92931 5.6361C7.11411 5.47845 7.34077 5.04415 7.14632 4.76668C6.53952 5.16939 6.22609 5.18675 5.10718 4.70211C5.07054 4.68626 5.09248 4.6269 5.13533 4.61731C5.36772 4.56525 5.92016 4.36423 6.41574 4.27063C6.51002 4.2528 6.60305 4.24186 6.69248 4.24071C6.17976 4.11855 5.95612 4.01213 5.6184 4.01379C5.5814 4.014 5.5629 3.96824 5.58958 3.9426C6.11841 3.43399 7.07685 3.40824 7.53845 3.78672L7.1249 2.92272L7.62757 2.84705C7.62757 2.84705 7.7587 3.30776 7.87607 3.72204C8.39943 3.14849 9.20933 3.20655 9.48206 3.7074C9.49827 3.73716 9.47169 3.77228 9.43828 3.76655C9.16373 3.7197 8.97543 3.94823 8.93619 4.13721L8.94009 4.1382Z" fill="#128843"/>
<path fill-rule="evenodd" clip-rule="evenodd" d="M9.21678 11.7513C9.11937 11.7513 9.05094 11.8119 9.03249 11.8987H9.39309C9.38522 11.8145 9.32466 11.7513 9.21678 11.7513Z" fill="#DB382A"/>
<path fill-rule="evenodd" clip-rule="evenodd" d="M5.16759 11.8542C5.16759 11.7613 5.08576 11.7012 4.95912 11.7012H4.82835V12.0183H4.95912C5.0916 12.0183 5.16759 11.9585 5.16759 11.8542Z" fill="#DB382A"/>
<path fill-rule="evenodd" clip-rule="evenodd" d="M2.64281 7.20348H4.48136V7.86021H3.37736V8.22607H4.39995V8.86159H3.37736V9.77447H2.64281V7.20348ZM4.6092 7.20348H5.64169C6.32485 7.20348 6.71666 7.53213 6.71666 8.10505C6.71666 8.45341 6.57173 8.7081 6.28565 8.86289L6.82893 9.77447H5.98395L5.52751 9.00663H5.34379V9.77447H4.6092V7.20348ZM6.88938 7.20348H8.84821V7.86021H7.6664V8.14826H8.78801V8.78373H7.6664V9.11774H8.84821V9.77447H6.88938V7.20348ZM9.36745 8.77236L9.39904 8.81343C9.57827 9.04676 9.79336 9.16022 10.0567 9.16022C10.2208 9.16022 10.3228 9.10435 10.3228 9.01445C10.3228 8.98703 10.3228 8.90375 10.1127 8.868L9.73029 8.79717C9.51343 8.76038 9.33045 8.67058 9.18645 8.53028C9.04328 8.38331 8.9711 8.20366 8.9711 7.99535C8.9711 7.74847 9.07106 7.54594 9.26817 7.39339C9.4645 7.24158 9.70121 7.1646 9.97175 7.1646C10.3704 7.1646 10.7035 7.31751 10.9615 7.61917L10.9878 7.64997L10.5181 8.15227L10.4853 8.11277C10.3205 7.91425 10.1432 7.81773 9.94345 7.81773C9.76813 7.81773 9.70564 7.88574 9.70564 7.94938C9.70564 7.97268 9.70564 8.04356 9.88738 8.07457L10.2273 8.13476C10.778 8.23087 11.0573 8.5185 11.0573 8.98964C11.0573 9.23454 10.9535 9.43602 10.7489 9.58857C10.546 9.73982 10.3022 9.81335 10.0036 9.81335C9.5533 9.81335 9.14778 9.61286 8.91878 9.27701L8.89777 9.24611L9.36745 8.77236ZM11.1479 7.20348H11.8825V8.13054H12.5916V7.20348H13.3297V9.77447H12.5916V8.82615H11.8825V9.77447H11.1479V7.20348ZM4.37353 12.123V11.35H4.99997C5.40123 11.35 5.63132 11.5437 5.63132 11.8814C5.63132 11.9281 5.62658 11.9719 5.61772 12.0129C5.64545 12.011 5.67317 12.0094 5.70095 12.0075C5.77475 11.8509 5.91317 11.7488 6.08068 11.7044C6.2202 11.6739 6.32214 11.6691 6.4738 11.6989C6.62869 11.7348 6.75534 11.8193 6.83315 11.9495C6.8751 11.9481 6.91711 11.9471 6.95911 11.9458V11.7092H7.07753V11.3972H7.53126V11.7092H7.71018V11.9312C7.73947 11.9309 7.76876 11.931 7.79805 11.9308V11.71H7.91651V11.398H8.37019V11.71H8.54916V11.9347C8.57918 11.9352 8.60915 11.9359 8.63917 11.9365C8.65538 11.799 8.70739 11.6844 8.79771 11.5922C8.90825 11.4769 9.05173 11.4205 9.22575 11.4205C9.40685 11.4205 9.54799 11.4769 9.64675 11.5922C9.73879 11.6995 9.78736 11.8276 9.79367 11.9777C9.81952 11.979 9.84542 11.9805 9.87127 11.9819V11.7113H10.3246V11.8438C10.3551 11.7746 10.489 11.6789 10.6214 11.6789C10.8551 11.6789 11.0027 11.8184 11.0393 12.0662C11.6479 12.1205 12.2549 12.1907 12.8593 12.2777C13.6651 11.3234 14.1287 10.0932 14.0397 8.66735C13.9006 6.43798 12.6014 5.09596 10.7272 4.50427C10.759 4.52908 10.7894 4.55535 10.8179 4.58328C10.8462 4.61096 10.8218 4.67511 10.7813 4.66422C10.0911 4.47811 9.01394 5.39433 8.31573 4.80186C8.29634 4.97515 8.14009 5.81143 6.94807 5.68749C6.91987 5.68457 6.90867 5.65372 6.9293 5.6361C7.11411 5.47845 7.34077 5.04416 7.14632 4.76668C6.53952 5.16939 6.22608 5.18675 5.10718 4.70211C5.09561 4.69705 5.09045 4.68757 5.08936 4.67683C2.47656 5.6065 1.81321 7.45781 1.93574 9.42232C2.00625 10.5529 2.41475 11.5178 3.04636 12.2906C3.48748 12.226 3.93001 12.1704 4.37353 12.123Z" fill="#DB382A"/>
<path fill-rule="evenodd" clip-rule="evenodd" d="M5.98212 8.09799C5.98212 7.90067 5.83046 7.86023 5.60281 7.86023H5.34379V8.35347H5.60281C5.94278 8.35347 5.98212 8.20769 5.98212 8.09799Z" fill="#DB382A"/>
<path fill-rule="evenodd" clip-rule="evenodd" d="M5.85815 11.8123L5.85246 11.8168L5.85815 11.8123Z" fill="#FAD41F"/>
<path fill-rule="evenodd" clip-rule="evenodd" d="M5.80842 11.8565L5.8122 11.8529L5.80842 11.8565Z" fill="#FAD41F"/>
<path fill-rule="evenodd" clip-rule="evenodd" d="M5.73198 11.9512L5.73144 11.9522L5.73198 11.9512Z" fill="#FAD41F"/>
<path fill-rule="evenodd" clip-rule="evenodd" d="M5.61772 12.0129L5.61767 12.0131C5.64539 12.0111 5.67312 12.0095 5.70085 12.0077L5.70095 12.0074C5.67317 12.0093 5.64545 12.0109 5.61772 12.0129Z" fill="#FAD41F"/>
<path fill-rule="evenodd" clip-rule="evenodd" d="M6.8331 11.9495L6.8333 11.9498C6.84258 11.9495 6.85186 11.949 6.86114 11.9487C6.85181 11.949 6.84242 11.9492 6.8331 11.9495Z" fill="#FAD41F"/>
<path fill-rule="evenodd" clip-rule="evenodd" d="M6.68478 11.7906L6.67899 11.7867L6.68478 11.7906Z" fill="#FAD41F"/>
<path fill-rule="evenodd" clip-rule="evenodd" d="M5.97118 11.745L5.95675 11.7518L5.97118 11.745Z" fill="#FAD41F"/>
<path fill-rule="evenodd" clip-rule="evenodd" d="M6.64167 11.7635L6.62838 11.7563L6.64167 11.7635Z" fill="#FAD41F"/>
<path fill-rule="evenodd" clip-rule="evenodd" d="M9.7895 11.9247L9.78918 11.9215L9.7895 11.9247Z" fill="#FAD41F"/>
<path fill-rule="evenodd" clip-rule="evenodd" d="M8.69307 11.7443L8.6869 11.7585L8.69307 11.7443Z" fill="#FAD41F"/>
<path fill-rule="evenodd" clip-rule="evenodd" d="M9.76929 11.8207L9.76698 11.813L9.76929 11.8207Z" fill="#FAD41F"/>
<path fill-rule="evenodd" clip-rule="evenodd" d="M9.78143 11.872L9.78038 11.8667L9.78143 11.872Z" fill="#FAD41F"/>
<path fill-rule="evenodd" clip-rule="evenodd" d="M12.6621 3.53064L12.1169 4.02424L12.1803 4.09439C12.3694 4.30338 12.5571 4.32355 12.7431 4.15516C12.9206 3.99454 12.9147 3.80978 12.7243 3.59938L12.6621 3.53064Z" fill="#FAD41F"/>
<path fill-rule="evenodd" clip-rule="evenodd" d="M5.84902 1.92033L5.69194 1.97417L5.79513 2.27551L5.95221 2.22162C6.09829 2.17159 6.15385 2.09539 6.1182 1.99132C6.08313 1.88906 6.00235 1.86775 5.84902 1.92033Z" fill="#FAD41F"/>
<path fill-rule="evenodd" clip-rule="evenodd" d="M12.9802 4.41696C12.5995 4.76162 12.2247 4.60354 11.9798 4.33311L11.6521 3.97105L12.6553 3.06291L12.983 3.42502C13.1125 3.56808 13.1912 3.71823 13.2153 3.89162C13.2396 4.06502 13.1619 4.25248 12.9802 4.41696ZM10.6522 3.27096L11.4138 2.15242L12.2564 2.72597L12.0825 2.98124L11.5496 2.6184L11.4333 2.78924L11.9391 3.13353L11.7718 3.37936L11.266 3.03497L11.1356 3.22645L11.6686 3.58924L11.4948 3.84461L10.6522 3.27096ZM10.0221 2.99359L10.5642 1.75377L10.8861 1.89449L10.344 3.13431L10.0221 2.99359ZM9.91062 2.09436L9.84084 2.3834L9.2985 2.25233L9.18155 2.73644L8.84003 2.65399L9.15779 1.33861L10.0848 1.5625L10.0122 1.8627L9.42682 1.7213L9.36834 1.96339L9.91062 2.09436ZM8.48615 2.62569L8.13535 2.60657L8.2092 1.25543L8.56 1.27461L8.48615 2.62569ZM7.37215 1.58773L7.49717 2.62444L7.14648 2.66671L7.02145 1.63005L6.65741 1.67398L6.62041 1.36743L7.69923 1.23729L7.73618 1.54384L7.37215 1.58773ZM6.3975 2.83625L6.02617 2.52068L5.89467 2.56581L6.03049 2.96201L5.69809 3.07599L5.25947 1.79578L5.76897 1.62124C6.10314 1.50674 6.35414 1.59612 6.45175 1.88104C6.51372 2.06184 6.48021 2.21418 6.35065 2.34223L6.77916 2.70543L6.3975 2.83625ZM4.64631 3.7138L3.92422 2.56956L4.78609 2.02572L4.95088 2.28683L4.40568 2.63091L4.51591 2.8055L5.03338 2.47904L5.19198 2.7304L4.67456 3.05697L4.79813 3.25277L5.34332 2.90874L5.50817 3.1699L4.64631 3.7138ZM4.13301 4.21944C3.9939 4.36141 3.83218 4.4327 3.6466 4.43183C3.46095 4.43098 3.29647 4.35891 3.15445 4.21981C3.01248 4.08065 2.94124 3.91904 2.93801 3.73209C2.93608 3.54374 3.00263 3.37926 3.14179 3.23729C3.29444 3.08151 3.47789 3.01006 3.68829 3.02434L3.69559 3.34226C3.55904 3.33538 3.47867 3.34851 3.38137 3.44774C3.31252 3.5181 3.28198 3.60164 3.28568 3.69994C3.28938 3.79807 3.33123 3.885 3.40842 3.96063C3.48696 4.03766 3.57613 4.07909 3.67443 4.08076C3.77267 4.08253 3.85559 4.04756 3.92584 3.97584C4.03258 3.86697 4.04925 3.76722 4.02309 3.60915L4.33991 3.62228C4.37353 3.8444 4.30458 4.04438 4.13301 4.21944ZM13.1024 2.85053C11.7535 1.56589 9.93658 0.858398 7.98624 0.858398C6.03591 0.858398 4.219 1.56589 2.8701 2.85053C1.5088 4.147 0.75909 5.91362 0.75909 7.82491C0.75909 9.30723 1.20448 10.7316 2.04706 11.9441C2.15458 12.0988 2.26794 12.2483 2.38604 12.3933C2.60571 12.3566 2.8259 12.3228 3.04631 12.2905C2.41475 11.5177 2.00626 10.5529 1.93574 9.42231C1.81321 7.4578 2.47656 5.60649 5.08936 4.67682C5.08706 4.65353 5.10598 4.62387 5.13532 4.6173C5.36772 4.56524 5.92016 4.36422 6.41574 4.27062C6.51002 4.2528 6.60305 4.24185 6.69248 4.2407C6.17975 4.11854 5.95612 4.01212 5.6184 4.01379C5.5814 4.01399 5.56289 3.96824 5.58958 3.94259C6.11841 3.43398 7.07685 3.40824 7.53845 3.78671L7.1249 2.92271L7.62757 2.84704C7.62757 2.84704 7.7587 3.30775 7.87607 3.72203C8.39948 3.14848 9.20933 3.20659 9.48206 3.70739C9.49827 3.73715 9.47169 3.77227 9.43828 3.76654C9.16373 3.71969 8.97543 3.94822 8.93618 4.1372L8.94009 4.13819C9.35484 4.10108 10.2319 4.11865 10.7272 4.50426C12.6014 5.09595 13.9006 6.43797 14.0397 8.66734C14.1287 10.0932 13.6651 11.3234 12.8593 12.2777C12.8517 12.2766 12.844 12.2756 12.8364 12.2745C13.0876 12.3105 13.3384 12.3487 13.5886 12.3903C13.7093 12.2422 13.825 12.0893 13.9345 11.931C14.7712 10.7213 15.2134 9.3015 15.2134 7.82491C15.2134 5.91362 14.4637 4.147 13.1024 2.85053Z" fill="#F9D320"/>
<path fill-rule="evenodd" clip-rule="evenodd" d="M10.9562 11.8401L10.9476 11.8285L10.9562 11.8401Z" fill="#FAD41F"/>
<path fill-rule="evenodd" clip-rule="evenodd" d="M10.9324 11.8092L10.9225 11.7985L10.9324 11.8092Z" fill="#FAD41F"/>
<path fill-rule="evenodd" clip-rule="evenodd" d="M10.9767 11.8732L10.9703 11.8621L10.9767 11.8732Z" fill="#FAD41F"/>
<path fill-rule="evenodd" clip-rule="evenodd" d="M10.898 11.7744L10.9046 11.78L10.898 11.7744Z" fill="#FAD41F"/>
<path fill-rule="evenodd" clip-rule="evenodd" d="M10.9936 11.9064L10.9902 11.8988L10.9936 11.9064Z" fill="#FAD41F"/>
<path fill-rule="evenodd" clip-rule="evenodd" d="M9.75396 11.7733L9.74864 11.7603L9.75396 11.7733Z" fill="#FAD41F"/>
<path fill-rule="evenodd" clip-rule="evenodd" d="M13.3535 13.1938C13.3293 13.2186 13.2994 13.2308 13.2637 13.2308C13.2286 13.2308 13.1986 13.2186 13.1745 13.1938C13.1502 13.1689 13.1381 13.1383 13.1381 13.102C13.1381 13.0657 13.1502 13.0345 13.1745 13.0096C13.1986 12.9841 13.2286 12.9713 13.2637 12.9713C13.2994 12.9713 13.3293 12.9841 13.3535 13.0096C13.3784 13.0345 13.3905 13.0657 13.3905 13.102C13.3905 13.1383 13.3784 13.1689 13.3535 13.1938ZM13.3873 12.9771C13.3535 12.9427 13.3121 12.9255 13.2637 12.9255C13.2152 12.9255 13.1745 12.9427 13.1406 12.9771C13.1075 13.0115 13.091 13.0529 13.091 13.102C13.091 13.1504 13.1075 13.1919 13.1406 13.2263C13.1745 13.2601 13.2152 13.2773 13.2637 13.2773C13.3121 13.2773 13.3535 13.2601 13.3873 13.2263C13.4211 13.1919 13.4383 13.1504 13.4383 13.102C13.4383 13.0529 13.4211 13.0115 13.3873 12.9771ZM13.2637 13.095H13.2426V13.0555H13.2637C13.2847 13.0555 13.2955 13.0618 13.2955 13.0746C13.2955 13.088 13.2847 13.095 13.2637 13.095ZM13.3395 13.0746C13.3395 13.0364 13.3096 13.0179 13.2713 13.0179H13.1993V13.1778H13.2426V13.1339H13.2643L13.2949 13.1778H13.344L13.3064 13.1269C13.3287 13.1167 13.3395 13.0994 13.3395 13.0746ZM10.7972 13.491C10.8802 13.8349 10.6313 14.1233 10.3069 14.2017C9.98254 14.28 9.62173 14.1386 9.53871 13.7947C9.48013 13.552 9.56821 13.3552 9.73499 13.2266C9.75093 13.2136 9.77089 13.201 9.78429 13.1963C9.7009 13.2035 9.6505 13.1994 9.59969 13.2165C9.59411 13.2183 9.58906 13.2123 9.59182 13.2071C9.64618 13.1041 9.77095 13.0539 9.85934 13.088C9.7993 13.0356 9.75213 12.9937 9.75213 12.9937L9.83442 12.9256C9.83442 12.9256 9.88711 13.0034 9.92542 13.06C9.97577 12.9474 10.1007 12.9158 10.1668 12.9778C10.1707 12.9814 10.1684 12.988 10.1631 12.9889C10.1194 12.9955 10.1033 13.0408 10.1068 13.0713L10.1447 13.0665C10.4553 13.0267 10.7225 13.1814 10.7972 13.491ZM5.94877 12.2595C5.88868 12.2352 5.85319 12.1834 5.88096 12.1278C5.90186 12.0861 5.96321 12.0691 6.01006 12.0874C6.06619 12.1093 6.07515 12.1674 6.10392 12.1917C6.12868 12.2125 6.16261 12.2151 6.18476 12.2008C6.20112 12.1902 6.20654 12.167 6.20039 12.1458C6.19221 12.1176 6.17048 12.1 6.14932 12.0827C6.11158 12.0521 6.05837 12.0257 6.09058 11.9421C6.11695 11.8735 6.19435 11.8711 6.19435 11.8711C6.22509 11.8677 6.25261 11.8769 6.27508 11.8969C6.3051 11.9237 6.31093 11.9596 6.30588 11.9978C6.30129 12.0327 6.28894 12.0633 6.28253 12.0978C6.27508 12.1379 6.2965 12.1784 6.3373 12.1799C6.39093 12.182 6.40704 12.1408 6.4136 12.1146C6.42319 12.0764 6.43581 12.0409 6.4713 12.0185C6.52222 11.9864 6.59299 11.9935 6.62582 12.0551C6.65178 12.104 6.64344 12.1711 6.60362 12.2078C6.58575 12.2243 6.56427 12.2301 6.54103 12.2302C6.50768 12.2305 6.47437 12.2297 6.44341 12.2452C6.42236 12.2559 6.41319 12.2731 6.41319 12.2964C6.41319 12.3189 6.42496 12.3337 6.44399 12.3433C6.4799 12.3614 6.51951 12.3651 6.55828 12.3719C6.61452 12.3817 6.66397 12.4015 6.69571 12.4537L6.69655 12.4551C6.73298 12.5169 6.69488 12.6058 6.62322 12.6096C6.46374 12.618 6.43117 12.4355 6.36857 12.4368C6.34189 12.4373 6.32089 12.4652 6.33011 12.4977C6.33517 12.5155 6.34929 12.5417 6.35815 12.558C6.38942 12.6154 6.34319 12.6803 6.28904 12.6857C6.19909 12.6949 6.16156 12.6427 6.16391 12.5893C6.16652 12.5293 6.21733 12.468 6.16521 12.442C6.11054 12.4146 6.06614 12.5215 6.01381 12.5453C5.96649 12.5669 5.90077 12.5502 5.87742 12.4976C5.861 12.4607 5.86397 12.3896 5.93704 12.3625C5.9827 12.3455 6.08438 12.3846 6.08959 12.335C6.09558 12.278 5.98275 12.2731 5.94877 12.2595ZM6.28842 12.8848C6.64219 12.8848 6.91716 12.6775 6.91716 12.2818C6.91716 11.9572 6.73506 11.7594 6.4738 11.6988C6.32214 11.669 6.2202 11.6738 6.08068 11.7043C5.82963 11.7708 5.6431 11.9665 5.6431 12.2818C5.6431 12.6775 5.9347 12.8848 6.28842 12.8848ZM13.0904 13.8104C13.0904 13.9351 13.0404 14.0385 12.9418 14.1179C12.8485 14.1948 12.7258 14.234 12.5775 14.234C12.3852 14.234 12.2293 14.1936 12.0897 14.1022L12.0633 14.0836L12.2453 13.7833C12.4543 13.9173 12.5623 13.8972 12.6035 13.894C12.6939 13.887 12.7037 13.787 12.6289 13.7888C12.5714 13.7901 12.4579 13.8019 12.2896 13.7236C12.1718 13.6515 12.0951 13.5676 12.0951 13.4291C12.0951 13.3095 12.1447 13.2117 12.2427 13.1382C12.3369 13.0676 12.4269 13.0285 12.5613 13.0223C12.7354 13.0142 12.8615 13.0521 13.0179 13.1326L13.0508 13.1545L12.8847 13.428C12.7029 13.3552 12.6086 13.3353 12.5426 13.3479C12.4653 13.3626 12.4765 13.4376 12.5335 13.4452C12.5905 13.4528 12.6815 13.4283 12.8531 13.4892C13.002 13.5486 13.0904 13.6454 13.0904 13.8104ZM10.3291 12.8555H9.87127V11.7112H10.3246V11.8438C10.3551 11.7745 10.489 11.6788 10.6214 11.6788C10.8929 11.6788 11.0485 11.8667 11.0485 12.1943V12.8555H10.5912V12.2322C10.5912 12.1361 10.5497 12.0874 10.468 12.0874C10.3822 12.0874 10.3291 12.1235 10.3291 12.3034V12.8555ZM8.07119 13.7549C8.03648 13.794 7.98723 13.8146 7.92881 13.8146C7.83448 13.8146 7.73889 13.7494 7.73889 13.6247C7.73889 13.5752 7.75578 13.529 7.78642 13.4945C7.82113 13.4555 7.87039 13.4348 7.92881 13.4348C8.02319 13.4348 8.11872 13.5 8.11872 13.6247C8.11872 13.6742 8.10184 13.7204 8.07119 13.7549ZM8.12529 13.1854L8.09663 13.1541C8.01715 13.0673 7.91729 13.0215 7.80784 13.0215C7.73061 13.0215 7.64925 13.0449 7.57248 13.0892C7.40143 13.1878 7.29923 13.3876 7.29913 13.6235C7.29902 13.8605 7.40117 14.0612 7.57248 14.1602C7.64925 14.2046 7.73108 14.228 7.80915 14.228C7.91828 14.228 8.01767 14.1833 8.09673 14.0987L8.12529 14.0681V14.1967H8.565V13.0538H8.12529V13.1854ZM7.07753 12.1036H6.95911V11.7091H7.07753V11.3971H7.53126V11.7091H7.71018V12.1036H7.53126V12.3903C7.53126 12.446 7.55502 12.4698 7.61074 12.4698H7.75442V12.8622L7.72805 12.8633C7.68188 12.8653 7.62017 12.8679 7.55607 12.8679C7.25196 12.8679 7.07753 12.7153 7.07753 12.4199V12.1036ZM8.44967 12.4707H8.59341V12.863L8.56698 12.8642C8.52086 12.8661 8.45915 12.8688 8.395 12.8688C8.09089 12.8688 7.91651 12.7162 7.91651 12.4208V12.1044H7.79805V11.7099H7.91651V11.398H8.37019V11.7099H8.54916V12.1044H8.37019V12.3912C8.37019 12.4469 8.39395 12.4707 8.44967 12.4707ZM4.19393 13.128H3.80404V14.1982H3.36146V13.128H2.97162V12.6927H4.19393V13.128ZM9.30444 13.8127H9.44834V14.2054L9.42192 14.2066C9.37569 14.2086 9.31393 14.2112 9.24977 14.2112C8.94541 14.2112 8.77082 14.0585 8.77082 13.7628V13.4461H8.6523V13.0513H8.77082V12.7391H9.22491V13.0513H9.40404V13.4461H9.22491V13.7331C9.22491 13.7889 9.24873 13.8127 9.30444 13.8127ZM7.22278 13.5356V14.1982H6.76169V13.5757C6.76169 13.478 6.7199 13.4284 6.63739 13.4284C6.55531 13.4284 6.53884 13.4799 6.53347 13.4968C6.5193 13.5476 6.5169 13.5766 6.5169 13.6381V14.1982H6.06249V13.5757C6.06249 13.478 6.01996 13.4284 5.936 13.4284C5.88831 13.4284 5.85715 13.4516 5.84495 13.4715C5.83635 13.4844 5.82989 13.5078 5.82582 13.5242C5.81769 13.5713 5.81769 13.5881 5.81769 13.6381V14.1982H5.376V13.0513H5.81326L5.81295 13.1591C5.84396 13.0959 5.96227 13.0215 6.12821 13.0215C6.26481 13.0215 6.37368 13.0684 6.44295 13.1572L6.45519 13.173L6.46843 13.158C6.55104 13.0645 6.64573 13.0246 6.78515 13.0246C6.91674 13.0246 7.22278 13.0744 7.22278 13.5356ZM4.67148 13.8075C4.56115 13.8075 4.46296 13.724 4.46296 13.609C4.46296 13.4927 4.56115 13.4083 4.67148 13.4083C4.78358 13.4083 4.88 13.4908 4.88 13.609C4.88 13.7277 4.7853 13.8075 4.67148 13.8075ZM4.85608 13.0415C4.70431 13.0117 4.62066 13.0165 4.48109 13.047C4.22989 13.1135 4.04326 13.3093 4.04326 13.6248C4.04326 14.0206 4.34663 14.228 4.67977 14.228C5.01295 14.228 5.29965 14.0206 5.29965 13.6248C5.29965 13.3 5.11745 13.1021 4.85608 13.0415ZM4.82835 11.7011H4.95911C5.08576 11.7011 5.16758 11.7612 5.16758 11.8541C5.16758 11.9584 5.0916 12.0182 4.95911 12.0182H4.82835V11.7011ZM4.82939 12.367H4.90528L5.19109 12.8555H5.70444L5.3871 12.3229L5.40138 12.3142C5.55393 12.222 5.63132 12.0763 5.63132 11.8813C5.63132 11.5436 5.40123 11.35 4.99997 11.35H4.37352V12.8555H4.82939V12.367ZM11.2705 13.4998C11.2889 13.4129 11.3573 13.3524 11.4548 13.3524C11.5626 13.3524 11.6232 13.4155 11.6311 13.4998H11.2705ZM11.4637 13.0215C11.2897 13.0215 11.1462 13.0779 11.0357 13.1932C10.9251 13.3061 10.871 13.4519 10.871 13.633C10.871 13.8165 10.9298 13.9623 11.0474 14.0681C11.165 14.1739 11.3132 14.228 11.492 14.228C11.6717 14.228 11.8626 14.1962 12.0151 14.0338L11.7375 13.7726C11.6791 13.8496 11.5978 13.8635 11.4872 13.8635C11.3931 13.8635 11.2916 13.8117 11.2705 13.7201H12.0305L12.0329 13.6119C12.0329 13.4472 11.9835 13.3084 11.8847 13.1932C11.786 13.0779 11.6448 13.0215 11.4637 13.0215ZM9.21678 11.7513C9.32467 11.7513 9.38523 11.8144 9.3931 11.8987H9.0325C9.05095 11.8118 9.11938 11.7513 9.21678 11.7513ZM9.25399 12.627C9.43375 12.627 9.6246 12.5951 9.77715 12.4327L9.49957 12.1715C9.44115 12.2485 9.35979 12.2624 9.24925 12.2624C9.15518 12.2624 9.05366 12.2107 9.0325 12.119H9.79257L9.79492 12.0108C9.79492 11.8461 9.74551 11.7074 9.64675 11.5921C9.54799 11.4769 9.40685 11.4204 9.22575 11.4204C9.05173 11.4204 8.90825 11.4769 8.79771 11.5921C8.68717 11.7051 8.63307 11.8508 8.63307 12.032C8.63307 12.2154 8.69186 12.3612 8.80943 12.4671C8.92706 12.5729 9.07523 12.627 9.25399 12.627Z" fill="#F2E93C"/>
<path fill-rule="evenodd" clip-rule="evenodd" d="M10.0567 9.16017C9.79336 9.16017 9.57827 9.04671 9.39904 8.81339L9.36745 8.77232L8.89777 9.24606L8.91878 9.27697C9.14778 9.61281 9.5533 9.81331 10.0036 9.81331C10.3022 9.81331 10.546 9.73977 10.7489 9.58853C10.9535 9.43598 11.0573 9.23449 11.0573 8.98959C11.0573 8.51845 10.778 8.23082 10.2273 8.13471L9.88738 8.07452C9.70564 8.04351 9.70564 7.97263 9.70564 7.94933C9.70564 7.8857 9.76813 7.81768 9.94345 7.81768C10.1432 7.81768 10.3205 7.91421 10.4853 8.11272L10.5182 8.15222L10.9878 7.64992L10.9615 7.61912C10.7035 7.31746 10.3705 7.16455 9.97175 7.16455C9.70121 7.16455 9.4645 7.24153 9.26817 7.39335C9.07106 7.54589 8.9711 7.74842 8.9711 7.9953C8.9711 8.20361 9.04328 8.38326 9.18645 8.53023C9.33045 8.67053 9.51343 8.76033 9.73029 8.79712L10.1127 8.86795C10.3228 8.9037 10.3228 8.98699 10.3228 9.0144C10.3228 9.1043 10.2208 9.16017 10.0567 9.16017Z" fill="#FFFFFE"/>
<path fill-rule="evenodd" clip-rule="evenodd" d="M13.3297 9.77449V7.20349H12.5916V8.13055H11.8825V7.20349H11.1479V9.77449H11.8825V8.82616H12.5916V9.77449H13.3297Z" fill="#FFFFFE"/>
<path fill-rule="evenodd" clip-rule="evenodd" d="M8.84821 7.86022V7.20349H6.88938V9.77449H8.84821V9.11776H7.6664V8.78374H8.78801V8.14827H7.6664V7.86022H8.84821Z" fill="#FFFFFE"/>
<path fill-rule="evenodd" clip-rule="evenodd" d="M4.48136 7.86022V7.20349H2.64281V9.77449H3.37736V8.8616H4.39995V8.22608H3.37736V7.86022H4.48136Z" fill="#FFFFFE"/>
<path fill-rule="evenodd" clip-rule="evenodd" d="M5.60281 8.35346H5.34379V7.86022H5.60281C5.83046 7.86022 5.98212 7.90066 5.98212 8.09798C5.98212 8.20769 5.94278 8.35346 5.60281 8.35346ZM6.71667 8.10507C6.71667 7.53214 6.32485 7.20349 5.64169 7.20349H4.6092V9.77449H5.34379V9.00664H5.52751L5.98395 9.77449H6.82893L6.28566 8.86291C6.57173 8.70812 6.71667 8.45342 6.71667 8.10507Z" fill="#FFFFFE"/>
</g>
<defs>
<clipPath id="clip0_106_2459">
<rect width="16" height="16" fill="white" transform="translate(0 0.5)"/>
</clipPath>
</defs>
</svg>
