<svg width="18" height="18" viewBox="0 0 18 18" fill="none" xmlns="http://www.w3.org/2000/svg">
<g clip-path="url(#clip0_106_2866)">
<path d="M2.61457 5.20296C-1.03719 8.72294 0.842852 12.9778 1.8707 14.3694C6.44419 19.7157 13.9086 17.5984 16.3862 13.6166C17.0038 12.5713 19.3121 6.80314 13.2758 3.67566L2.61457 5.20296Z" fill="#F93208"/>
<path d="M5.13898 5.00363L5.7588 3.87448L9.4439 3.23242L10.8864 4.40586L5.13898 5.00363Z" fill="#F93208"/>
<path d="M5.11601 1.092L6.27945 0.418823L7.15602 2.39137C7.64802 1.58566 8.94499 0.312161 10.3913 1.79646C9.77797 1.95748 9.41629 2.28775 9.38728 2.87669C11.352 2.34533 13.4534 3.28609 13.7383 4.0352C12.3176 3.48545 10.1454 5.35758 8.31934 4.33263C8.32051 6.24987 6.68254 6.45261 5.73746 6.50869C6.00691 5.87203 6.46278 5.23511 5.92868 4.59884C4.9404 5.6401 4.12881 5.9583 1.62555 5.1937C2.25811 4.97974 3.55113 3.74223 4.79718 3.73777C3.91826 3.42339 3.2028 3.47181 2.48618 3.5498C2.8646 3.04504 4.06226 1.61319 6.19969 2.46968L5.11601 1.092Z" fill="#02902E"/>
</g>
<defs>
<clipPath id="clip0_106_2866">
<rect width="18" height="18" fill="white"/>
</clipPath>
</defs>
</svg>
